<svg width="24" height="25" viewBox="0 0 24 25" fill="none" xmlns="http://www.w3.org/2000/svg">
<path fill-rule="evenodd" clip-rule="evenodd" d="M16.939 3.61658C18.28 3.61658 19.57 4.14658 20.519 5.09758C21.469 6.04658 22 7.32658 22 8.66658V16.5666C22 19.3566 19.73 21.6166 16.939 21.6166H7.06C4.269 21.6166 2 19.3566 2 16.5666V8.66658C2 5.87658 4.259 3.61658 7.06 3.61658H16.939ZM18.53 10.1566L18.61 10.0766C18.849 9.78658 18.849 9.36658 18.599 9.07658C18.46 8.92758 18.269 8.83658 18.07 8.81658C17.86 8.80558 17.66 8.87658 17.509 9.01658L13 12.6166C12.42 13.0976 11.589 13.0976 11 12.6166L6.5 9.01658C6.189 8.78658 5.759 8.81658 5.5 9.08658C5.23 9.35658 5.2 9.78658 5.429 10.0866L5.56 10.2166L10.11 13.7666C10.67 14.2066 11.349 14.4466 12.06 14.4466C12.769 14.4466 13.46 14.2066 14.019 13.7666L18.53 10.1566Z" fill="#157E9B"/>
</svg>
