<svg width="20" height="21" viewBox="0 0 20 21" fill="none" xmlns="http://www.w3.org/2000/svg">
<path d="M18.5195 0.383423H1.47656C0.660156 0.383423 0 1.02795 0 1.82483V18.9381C0 19.735 0.660156 20.3834 1.47656 20.3834H18.5195C19.3359 20.3834 20 19.735 20 18.942V1.82483C20 1.02795 19.3359 0.383423 18.5195 0.383423ZM5.93359 17.4264H2.96484V7.87952H5.93359V17.4264ZM4.44922 6.57874C3.49609 6.57874 2.72656 5.8092 2.72656 4.85998C2.72656 3.91077 3.49609 3.14124 4.44922 3.14124C5.39844 3.14124 6.16797 3.91077 6.16797 4.85998C6.16797 5.8053 5.39844 6.57874 4.44922 6.57874ZM17.043 17.4264H14.0781V12.7858C14.0781 11.6803 14.0586 10.2545 12.5352 10.2545C10.9922 10.2545 10.7578 11.4615 10.7578 12.7076V17.4264H7.79688V7.87952H10.6406V9.1842H10.6797C11.0742 8.4342 12.043 7.64124 13.4844 7.64124C16.4883 7.64124 17.043 9.6178 17.043 12.1881V17.4264Z" fill="#157E9B"/>
</svg>
