<svg width="24" height="25" viewBox="0 0 24 25" fill="none" xmlns="http://www.w3.org/2000/svg">
<path fill-rule="evenodd" clip-rule="evenodd" d="M12.03 2.6166C14.29 2.6266 16.45 3.5266 18.03 5.1066C19.62 6.6966 20.51 8.8466 20.5 11.0766V11.1266C20.44 14.1566 18.74 16.9466 16.62 19.1266C15.42 20.3566 14.09 21.4466 12.64 22.3666C12.25 22.6966 11.68 22.6966 11.29 22.3666C9.14 20.9666 7.24 19.2066 5.7 17.1566C4.35 15.3766 3.58 13.2366 3.5 11.0066C3.52 6.3566 7.34 2.6066 12.03 2.6166ZM12.03 13.8766C12.74 13.8766 13.42 13.6066 13.92 13.1166C14.44 12.6066 14.731 11.9276 14.731 11.2166C14.731 9.7366 13.52 8.5466 12.03 8.5466C10.54 8.5466 9.34 9.7366 9.34 11.2166C9.34 12.6776 10.52 13.8566 12 13.8766H12.03Z" fill="#157E9B"/>
</svg>
