<svg width="24" height="25" viewBox="0 0 24 25" fill="none" xmlns="http://www.w3.org/2000/svg">
<path fill-rule="evenodd" clip-rule="evenodd" d="M5.00846 11.3112C5.00846 10.6925 5.01591 10.0739 5.02339 9.45236L5.02339 9.45235C5.02719 9.13726 5.03099 8.82143 5.03384 8.50449C5.03384 5.09919 7.16556 2.61636 10.1094 2.61636H13.8906C16.8344 2.61636 18.9662 5.09919 18.9662 8.50449C18.9915 9.86857 19 11.2327 19 12.6066C19 13.9804 18.9915 15.3642 18.9662 16.7282C18.9662 20.1335 16.8344 22.6164 13.8906 22.6164H10.1094C7.16556 22.6164 5.03384 20.1335 5.03384 16.7184C5.01692 15.4328 5 14.1178 5 12.7832L5.00846 11.3112ZM13.28 20.2566V20.4166C13.28 21.0902 12.7168 21.6166 12 21.6166C11.3003 21.6166 10.72 21.0902 10.72 20.4166V20.2566C10.72 19.6006 11.3003 19.0566 12 19.0566C12.7168 19.0566 13.28 19.6006 13.28 20.2566ZM7.01671 9.06001C7.01136 9.46399 7.00604 9.86611 7.00604 10.2682L7 11.225C7 12.0926 7.01208 12.9473 7.02417 13.7829C7.02417 16.0028 8.54683 17.6166 10.6495 17.6166H13.3505C15.4532 17.6166 16.9758 16.0028 16.9758 13.7893C16.994 12.9027 17 12.0033 17 11.1102C17 10.2172 16.994 9.33054 16.9758 8.44389C16.9758 6.23044 15.4532 4.61661 13.3505 4.61661H10.6495C8.54683 4.61661 7.02417 6.23044 7.02417 8.44389C7.02214 8.6499 7.01942 8.8552 7.01671 9.06001Z" fill="#157E9B"/>
</svg>
