<svg width="20" height="20" viewBox="0 0 20 20" fill="none" xmlns="http://www.w3.org/2000/svg">
<path d="M14.634 8.38377C14.8617 8.14802 14.9877 7.83227 14.9849 7.50452C14.982 7.17677 14.8505 6.86326 14.6188 6.6315C14.387 6.39974 14.0735 6.26828 13.7458 6.26543C13.418 6.26258 13.1023 6.38857 12.8665 6.61627L8.75027 10.7325L7.13401 9.11627C6.89826 8.88857 6.58251 8.76258 6.25476 8.76543C5.92702 8.76828 5.6135 8.89974 5.38174 9.1315C5.14998 9.36326 5.01852 9.67677 5.01567 10.0045C5.01282 10.3323 5.13882 10.648 5.36652 10.8838L7.86652 13.3838C8.10093 13.6181 8.41881 13.7498 8.75027 13.7498C9.08172 13.7498 9.39961 13.6181 9.63402 13.3838L14.634 8.38377Z" fill="#2BF21A"/>
<path d="M0 10C0 7.34784 1.05357 4.8043 2.92893 2.92893C4.8043 1.05357 7.34784 0 10 0C12.6522 0 15.1957 1.05357 17.0711 2.92893C18.9464 4.8043 20 7.34784 20 10C20 12.6522 18.9464 15.1957 17.0711 17.0711C15.1957 18.9464 12.6522 20 10 20C7.34784 20 4.8043 18.9464 2.92893 17.0711C1.05357 15.1957 0 12.6522 0 10ZM10 2.5C9.01509 2.5 8.03982 2.69399 7.12987 3.0709C6.21993 3.44781 5.39314 4.00026 4.6967 4.6967C4.00026 5.39314 3.44781 6.21993 3.0709 7.12987C2.69399 8.03982 2.5 9.01509 2.5 10C2.5 10.9849 2.69399 11.9602 3.0709 12.8701C3.44781 13.7801 4.00026 14.6069 4.6967 15.3033C5.39314 15.9997 6.21993 16.5522 7.12987 16.9291C8.03982 17.306 9.01509 17.5 10 17.5C11.9891 17.5 13.8968 16.7098 15.3033 15.3033C16.7098 13.8968 17.5 11.9891 17.5 10C17.5 8.01088 16.7098 6.10322 15.3033 4.6967C13.8968 3.29018 11.9891 2.5 10 2.5Z" fill="#2BF21A"/>
</svg>
