<svg width="24" height="24" viewBox="0 0 24 24" fill="none" xmlns="http://www.w3.org/2000/svg">
<path d="M1.93918 1.93938C2.22047 1.65817 2.60193 1.5002 2.99968 1.5002C3.39743 1.5002 3.77889 1.65817 4.06018 1.93938L11.9997 9.87888L19.9392 1.93938C20.0775 1.79611 20.2431 1.68184 20.4261 1.60323C20.6091 1.52461 20.8059 1.48323 21.0051 1.4815C21.2042 1.47977 21.4018 1.51772 21.5861 1.59315C21.7705 1.66857 21.9379 1.77995 22.0788 1.92079C22.2196 2.06162 22.331 2.2291 22.4064 2.41345C22.4818 2.59779 22.5198 2.79531 22.5181 2.99448C22.5163 3.19365 22.4749 3.39048 22.3963 3.57348C22.3177 3.75649 22.2034 3.92201 22.0602 4.06038L14.1207 11.9999L22.0602 19.9394C22.3334 20.2223 22.4846 20.6012 22.4812 20.9945C22.4778 21.3878 22.32 21.764 22.0419 22.0421C21.7638 22.3202 21.3876 22.478 20.9943 22.4814C20.601 22.4848 20.2221 22.3336 19.9392 22.0604L11.9997 14.1209L4.06018 22.0604C3.77728 22.3336 3.39837 22.4848 3.00508 22.4814C2.61178 22.478 2.23556 22.3202 1.95745 22.0421C1.67934 21.764 1.52159 21.3878 1.51817 20.9945C1.51475 20.6012 1.66594 20.2223 1.93918 19.9394L9.87868 11.9999L1.93918 4.06038C1.65797 3.77909 1.5 3.39762 1.5 2.99988C1.5 2.60213 1.65797 2.22067 1.93918 1.93938Z" fill="#C4C4C4"/>
</svg>
