<svg width="100" height="100" viewBox="0 0 100 100" fill="none" xmlns="http://www.w3.org/2000/svg">
<circle cx="50" cy="50" r="50" fill="#A2CDF5"/>
<path d="M67.9934 31.8657H32.0065C30.5915 31.8657 29.4443 33.0129 29.4443 34.4279V57.6359C29.4443 59.051 30.5915 60.1981 32.0065 60.1981H67.9934C69.4085 60.1981 70.5556 59.051 70.5556 57.6359V34.4279C70.5556 33.0129 69.4085 31.8657 67.9934 31.8657Z" fill="#CECECE"/>
<path d="M31.3193 57.6359V34.4279C31.3201 33.7486 31.5903 33.0974 32.0707 32.617C32.551 32.1367 33.2022 31.8665 33.8815 31.8657H32.0065C31.3272 31.8665 30.676 32.1367 30.1957 32.617C29.7153 33.0974 29.4451 33.7486 29.4443 34.4279V57.6359C29.4451 58.3152 29.7153 58.9664 30.1957 59.4468C30.676 59.9271 31.3272 60.1973 32.0065 60.1981H33.8815C33.2022 60.1973 32.551 59.9271 32.0707 59.4468C31.5903 58.9664 31.3201 58.3152 31.3193 57.6359Z" fill="#AFAFAF"/>
<path d="M68.6804 57.6359V34.4279C68.6796 33.7486 68.4094 33.0974 67.929 32.617C67.4487 32.1367 66.7975 31.8665 66.1182 31.8657H67.9932C68.6725 31.8665 69.3237 32.1367 69.804 32.617C70.2844 33.0974 70.5546 33.7486 70.5554 34.4279V57.6359C70.5546 58.3152 70.2844 58.9664 69.804 59.4468C69.3237 59.9271 68.6725 60.1973 67.9932 60.1981H66.1182C66.7975 60.1973 67.4487 59.9271 67.929 59.4468C68.4094 58.9664 68.6796 58.3152 68.6804 57.6359Z" fill="#E2E2E2"/>
<path d="M67.9929 33.4421H32.006C31.4617 33.4421 31.0205 33.8834 31.0205 34.4276V55.3856C31.0205 55.9299 31.4617 56.3711 32.006 56.3711H67.9929C68.5372 56.3711 68.9784 55.9299 68.9784 55.3856V34.4276C68.9784 33.8834 68.5372 33.4421 67.9929 33.4421Z" fill="#63BCE7"/>
<path d="M32.8955 55.3858V34.4276C32.8962 34.1665 33.0003 33.9163 33.185 33.7316C33.3696 33.5469 33.6199 33.4429 33.881 33.4421H32.006C31.7449 33.4429 31.4946 33.5469 31.31 33.7316C31.1253 33.9163 31.0212 34.1665 31.0205 34.4276V55.3858C31.0212 55.647 31.1253 55.8972 31.31 56.0819C31.4946 56.2665 31.7449 56.3706 32.006 56.3713H33.881C33.6199 56.3706 33.3696 56.2665 33.185 56.0819C33.0003 55.8972 32.8962 55.647 32.8955 55.3858Z" fill="#6377E7"/>
<path d="M67.1037 55.3858V34.4276C67.1029 34.1665 66.9989 33.9163 66.8142 33.7316C66.6295 33.5469 66.3793 33.4429 66.1182 33.4421H67.9932C68.2543 33.4429 68.5045 33.5469 68.6892 33.7316C68.8739 33.9163 68.9779 34.1665 68.9787 34.4276V55.3858C68.9779 55.647 68.8739 55.8972 68.6892 56.0819C68.5045 56.2665 68.2543 56.3706 67.9932 56.3713H66.1182C66.3793 56.3706 66.6295 56.2665 66.8142 56.0819C66.9989 55.8972 67.1029 55.647 67.1037 55.3858Z" fill="#63E2E7"/>
<path d="M42.8389 64.3525H57.1607V66.077H42.8389V64.3525Z" fill="#9E9E9E"/>
<path d="M42.8389 64.3525H44.7139V66.077H42.8389V64.3525Z" fill="#707070"/>
<path d="M44.876 60.198H55.1245V64.3526H44.876V60.198Z" fill="#CECECE"/>
<path d="M44.876 60.198H46.751V64.3526H44.876V60.198Z" fill="#AFAFAF"/>
<path d="M63.5849 40.3589H49.7881C49.2703 40.3589 48.8506 40.7786 48.8506 41.2964V65.1396C48.8506 65.6574 49.2703 66.0771 49.7881 66.0771H63.5849C64.1027 66.0771 64.5224 65.6574 64.5224 65.1396V41.2964C64.5224 40.7786 64.1027 40.3589 63.5849 40.3589Z" fill="#F8AF23"/>
<path d="M48.8506 65.1396C48.8506 65.3882 48.9494 65.6267 49.1252 65.8025C49.301 65.9783 49.5394 66.0771 49.7881 66.0771H63.5849C63.8335 66.0771 64.072 65.9783 64.2478 65.8025C64.4236 65.6267 64.5224 65.3882 64.5224 65.1396V62.6396H48.8506V65.1396Z" fill="#9E9E9E"/>
<path d="M64.5226 41.2964C64.5226 41.0477 64.4238 40.8093 64.248 40.6335C64.0722 40.4577 63.8337 40.3589 63.5851 40.3589H49.7881C49.5394 40.3589 49.301 40.4577 49.1252 40.6335C48.9494 40.8093 48.8506 41.0477 48.8506 41.2964V42.3276H64.5224L64.5226 41.2964Z" fill="#9E9E9E"/>
<path d="M56.6865 65.2411C57.174 65.2411 57.5692 64.8459 57.5692 64.3583C57.5692 63.8708 57.174 63.4756 56.6865 63.4756C56.1989 63.4756 55.8037 63.8708 55.8037 64.3583C55.8037 64.8459 56.1989 65.2411 56.6865 65.2411Z" fill="#3F3679"/>
<path d="M61.2923 45.6436H52.0812C51.7278 45.6436 51.4414 45.93 51.4414 46.2833V46.7948C51.4414 47.1481 51.7278 47.4346 52.0812 47.4346H61.2923C61.6456 47.4346 61.932 47.1481 61.932 46.7948V46.2833C61.932 45.93 61.6456 45.6436 61.2923 45.6436Z" fill="#F46275"/>
<path d="M61.2923 49.1128H52.0812C51.7278 49.1128 51.4414 49.3992 51.4414 49.7525V50.264C51.4414 50.6174 51.7278 50.9038 52.0812 50.9038H61.2923C61.6456 50.9038 61.932 50.6174 61.932 50.264V49.7525C61.932 49.3992 61.6456 49.1128 61.2923 49.1128Z" fill="#F46275"/>
<path d="M61.2923 52.582H52.0812C51.7278 52.582 51.4414 52.8685 51.4414 53.2218V53.7333C51.4414 54.0866 51.7278 54.373 52.0812 54.373H61.2923C61.6456 54.373 61.932 54.0866 61.932 53.7333V53.2218C61.932 52.8685 61.6456 52.582 61.2923 52.582Z" fill="#F46275"/>
<path d="M51.4414 55.9626H61.932V60.7921H51.4414V55.9626Z" fill="#63BCE7"/>
<path d="M51.4414 60.7922L56.6867 56.4951L61.932 60.7922H51.4414Z" fill="#F8AF23"/>
<path d="M59.2012 58.5558L60.5452 57.4546L61.9312 58.5901V60.7923L59.2012 58.5558Z" fill="#F46275"/>
<path d="M35.0332 37.0667H45.5238V41.8961H35.0332V37.0667Z" fill="#F46275"/>
<path d="M35.0332 41.8963L40.2785 37.5994L45.5238 41.8963H35.0332Z" fill="#F8AF23"/>
<path d="M44.8841 44.1003H35.673C35.3196 44.1003 35.0332 44.3868 35.0332 44.7401V45.2516C35.0332 45.6049 35.3196 45.8913 35.673 45.8913H44.8841C45.2374 45.8913 45.5238 45.6049 45.5238 45.2516V44.7401C45.5238 44.3868 45.2374 44.1003 44.8841 44.1003Z" fill="#F8AF23"/>
<path d="M44.8841 47.5696H35.673C35.3196 47.5696 35.0332 47.856 35.0332 48.2093V48.7208C35.0332 49.0742 35.3196 49.3606 35.673 49.3606H44.8841C45.2374 49.3606 45.5238 49.0742 45.5238 48.7208V48.2093C45.5238 47.856 45.2374 47.5696 44.8841 47.5696Z" fill="#F8AF23"/>
<path d="M44.8841 51.0388H35.673C35.3196 51.0388 35.0332 51.3252 35.0332 51.6786V52.1901C35.0332 52.5434 35.3196 52.8298 35.673 52.8298H44.8841C45.2374 52.8298 45.5238 52.5434 45.5238 52.1901V51.6786C45.5238 51.3252 45.2374 51.0388 44.8841 51.0388Z" fill="#F8AF23"/>
<path d="M31.1221 67.8533H27.7471C27.6725 67.8533 27.6009 67.8829 27.5482 67.9356C27.4955 67.9884 27.4658 68.0599 27.4658 68.1345C27.4658 68.2091 27.4955 68.2807 27.5482 68.3334C27.6009 68.3861 27.6725 68.4158 27.7471 68.4158H31.1221C31.1967 68.4158 31.2682 68.3861 31.3209 68.3334C31.3737 68.2807 31.4033 68.2091 31.4033 68.1345C31.4033 68.0599 31.3737 67.9884 31.3209 67.9356C31.2682 67.8829 31.1967 67.8533 31.1221 67.8533Z" fill="#3F3679"/>
<path d="M72.252 67.8533H68.877C68.8024 67.8533 68.7308 67.8829 68.6781 67.9356C68.6253 67.9884 68.5957 68.0599 68.5957 68.1345C68.5957 68.2091 68.6253 68.2807 68.6781 68.3334C68.7308 68.3861 68.8024 68.4158 68.877 68.4158H72.252C72.3265 68.4158 72.3981 68.3861 72.4508 68.3334C72.5036 68.2807 72.5332 68.2091 72.5332 68.1345C72.5332 68.0599 72.5036 67.9884 72.4508 67.9356C72.3981 67.8829 72.3265 67.8533 72.252 67.8533Z" fill="#3F3679"/>
<path d="M66.9648 67.8533H33.0352C32.9606 67.8533 32.889 67.8829 32.8363 67.9356C32.7835 67.9884 32.7539 68.0599 32.7539 68.1345C32.7539 68.2091 32.7835 68.2807 32.8363 68.3334C32.889 68.3861 32.9606 68.4158 33.0352 68.4158H66.9648C67.0394 68.4158 67.1109 68.3861 67.1637 68.3334C67.2164 68.2807 67.246 68.2091 67.246 68.1345C67.246 68.0599 67.2164 67.9884 67.1637 67.9356C67.1109 67.8829 67.0394 67.8533 66.9648 67.8533Z" fill="#3F3679"/>
<path d="M27.7471 66.3584H72.2521C72.3267 66.3584 72.3982 66.3288 72.4509 66.276C72.5037 66.2233 72.5333 66.1517 72.5333 66.0771C72.5333 66.0026 72.5037 65.931 72.4509 65.8783C72.3982 65.8255 72.3267 65.7959 72.2521 65.7959H64.6101C64.7364 65.6003 64.8036 65.3725 64.8036 65.1396V60.4793H67.9932C68.7471 60.4785 69.4698 60.1786 70.0029 59.6456C70.5359 59.1125 70.8358 58.3898 70.8366 57.6359V34.4279C70.8358 33.674 70.5359 32.9513 70.0029 32.4182C69.4698 31.8852 68.7471 31.5853 67.9932 31.5845H32.0061C31.2523 31.5853 30.5295 31.8852 29.9965 32.4182C29.4634 32.9513 29.1635 33.674 29.1627 34.4279V57.6359C29.1635 58.3898 29.4634 59.1125 29.9965 59.6456C30.5295 60.1786 31.2523 60.4785 32.0061 60.4793H44.5939V64.0715H42.8388C42.7642 64.0715 42.6926 64.1011 42.6399 64.1538C42.5871 64.2066 42.5575 64.2781 42.5575 64.3527V65.7965H27.7471C27.6725 65.7965 27.6009 65.8261 27.5482 65.8788C27.4955 65.9316 27.4658 66.0031 27.4658 66.0777C27.4658 66.1523 27.4955 66.2238 27.5482 66.2766C27.6009 66.3293 27.6725 66.359 27.7471 66.359V66.3584ZM49.1316 42.6085H64.2409V62.3585H49.1316V42.6085ZM64.2409 42.046H49.1316V41.296C49.1316 41.122 49.2008 40.9551 49.3238 40.832C49.4469 40.7089 49.6138 40.6398 49.7879 40.6398H63.5847C63.7587 40.6398 63.9257 40.7089 64.0487 40.832C64.1718 40.9551 64.2409 41.122 64.2409 41.296V42.046ZM64.8034 42.3273V41.296C64.803 40.9729 64.6745 40.6632 64.446 40.4347C64.2176 40.2062 63.9078 40.0777 63.5847 40.0773H49.7879C49.4648 40.0777 49.155 40.2062 48.9265 40.4347C48.6981 40.6632 48.5695 40.9729 48.5691 41.296V56.0898H32.0061C31.8194 56.0896 31.6405 56.0153 31.5084 55.8834C31.3764 55.7514 31.3021 55.5724 31.3019 55.3857V34.4277C31.3021 34.241 31.3763 34.062 31.5084 33.93C31.6404 33.7979 31.8194 33.7237 32.0061 33.7235H67.993C68.1797 33.7237 68.3587 33.7979 68.4908 33.93C68.6228 34.062 68.6971 34.241 68.6973 34.4277V55.3859C68.697 55.5726 68.6227 55.7516 68.4907 55.8835C68.3587 56.0155 68.1797 56.0898 67.993 56.09H64.8036L64.8034 42.3273ZM57.1604 65.7959H49.7879C49.6138 65.7959 49.4469 65.7268 49.3238 65.6037C49.2008 65.4806 49.1316 65.3137 49.1316 65.1396V62.921H64.2409V65.1396C64.2409 65.3137 64.1718 65.4806 64.0487 65.6037C63.9257 65.7268 63.7587 65.7959 63.5847 65.7959H57.1604ZM29.7252 57.6359V34.4279C29.7259 33.8232 29.9664 33.2434 30.394 32.8158C30.8216 32.3882 31.4014 32.1477 32.0061 32.147H67.993C68.5977 32.1477 69.1775 32.3882 69.6051 32.8158C70.0327 33.2434 70.2733 33.8232 70.2739 34.4279V57.6359C70.2733 58.2406 70.0328 58.8204 69.6052 59.2481C69.1775 59.6757 68.5978 59.9162 67.993 59.9168H64.8036V56.6525H67.9932C68.329 56.6521 68.651 56.5186 68.8885 56.2811C69.126 56.0437 69.2596 55.7217 69.2599 55.3859V34.4277C69.2596 34.0919 69.126 33.7699 68.8885 33.5324C68.651 33.295 68.329 33.1614 67.9932 33.161H32.0061C31.6703 33.1614 31.3483 33.295 31.1108 33.5324C30.8734 33.7699 30.7398 34.0919 30.7394 34.4277V55.3859C30.7398 55.7217 30.8734 56.0437 31.1109 56.2811C31.3483 56.5186 31.6703 56.6521 32.0061 56.6525H48.5691V59.9167H32.0061C31.4014 59.916 30.8217 59.6755 30.394 59.2479C29.9664 58.8204 29.7259 58.2406 29.7252 57.6359ZM45.1564 60.4793H48.5689V64.0715H45.1564V60.4793ZM43.12 64.634H48.5693V65.1402C48.5694 65.373 48.6365 65.6009 48.7628 65.7965H43.12V64.634Z" fill="#3F3679"/>
<path d="M61.2923 45.3625H52.0812C51.837 45.3628 51.6029 45.4599 51.4302 45.6326C51.2575 45.8052 51.1604 46.0394 51.1602 46.2835V46.7952C51.1604 47.0394 51.2575 47.2735 51.4302 47.4462C51.6029 47.6189 51.837 47.716 52.0812 47.7162H61.2923C61.5365 47.716 61.7706 47.6189 61.9433 47.4462C62.1159 47.2735 62.213 47.0394 62.2133 46.7952V46.2835C62.213 46.0394 62.1159 45.8052 61.9433 45.6326C61.7706 45.4599 61.5365 45.3628 61.2923 45.3625ZM61.6508 46.7952C61.6507 46.8903 61.6129 46.9814 61.5457 47.0486C61.4785 47.1158 61.3873 47.1536 61.2923 47.1537H52.0812C51.9861 47.1536 51.895 47.1158 51.8278 47.0486C51.7606 46.9814 51.7228 46.8903 51.7227 46.7952V46.2835C51.7228 46.1885 51.7606 46.0974 51.8278 46.0302C51.895 45.963 51.9861 45.9251 52.0812 45.925H61.2923C61.3873 45.9251 61.4785 45.963 61.5457 46.0302C61.6129 46.0974 61.6507 46.1885 61.6508 46.2835V46.7952Z" fill="#3F3679"/>
<path d="M61.2923 48.8315H52.0812C51.837 48.8318 51.6029 48.9289 51.4302 49.1016C51.2575 49.2742 51.1604 49.5084 51.1602 49.7525V50.2642C51.1604 50.5084 51.2575 50.7425 51.4302 50.9152C51.6029 51.0879 51.837 51.185 52.0812 51.1852H61.2923C61.5365 51.185 61.7706 51.0879 61.9433 50.9152C62.1159 50.7425 62.213 50.5084 62.2133 50.2642V49.7525C62.213 49.5084 62.1159 49.2742 61.9433 49.1016C61.7706 48.9289 61.5365 48.8318 61.2923 48.8315ZM61.6508 50.2642C61.6507 50.3593 61.6129 50.4504 61.5457 50.5176C61.4785 50.5848 61.3873 50.6226 61.2923 50.6227H52.0812C51.9861 50.6226 51.895 50.5848 51.8278 50.5176C51.7606 50.4504 51.7228 50.3593 51.7227 50.2642V49.7525C51.7228 49.6575 51.7606 49.5664 51.8278 49.4992C51.895 49.4319 51.9861 49.3941 52.0812 49.394H61.2923C61.3873 49.3941 61.4785 49.4319 61.5457 49.4992C61.6129 49.5664 61.6507 49.6575 61.6508 49.7525V50.2642Z" fill="#3F3679"/>
<path d="M61.2923 52.301H52.0812C51.837 52.3013 51.6029 52.3984 51.4302 52.5711C51.2575 52.7437 51.1604 52.9778 51.1602 53.222V53.7337C51.1604 53.9779 51.2575 54.212 51.4302 54.3847C51.6029 54.5574 51.837 54.6545 52.0812 54.6547H61.2923C61.5365 54.6545 61.7706 54.5574 61.9433 54.3847C62.1159 54.212 62.213 53.9779 62.2133 53.7337V53.222C62.213 52.9778 62.1159 52.7437 61.9433 52.5711C61.7706 52.3984 61.5365 52.3013 61.2923 52.301ZM61.6508 53.7337C61.6507 53.8288 61.6129 53.9199 61.5457 53.9871C61.4785 54.0543 61.3873 54.0921 61.2923 54.0922H52.0812C51.9861 54.0921 51.895 54.0543 51.8278 53.9871C51.7606 53.9199 51.7228 53.8288 51.7227 53.7337V53.222C51.7228 53.127 51.7606 53.0359 51.8278 52.9686C51.895 52.9014 51.9861 52.8636 52.0812 52.8635H61.2923C61.3873 52.8636 61.4785 52.9014 61.5457 52.9686C61.6129 53.0359 61.6507 53.127 61.6508 53.222V53.7337Z" fill="#3F3679"/>
<path d="M61.932 55.6814H51.4414C51.3668 55.6814 51.2953 55.711 51.2425 55.7638C51.1898 55.8165 51.1602 55.8881 51.1602 55.9626V60.7921C51.1602 60.8667 51.1898 60.9382 51.2425 60.991C51.2953 61.0437 51.3668 61.0733 51.4414 61.0733H61.932C62.0066 61.0733 62.0782 61.0437 62.1309 60.991C62.1837 60.9382 62.2133 60.8667 62.2133 60.7921V55.9626C62.2133 55.8881 62.1837 55.8165 62.1309 55.7638C62.0782 55.711 62.0066 55.6814 61.932 55.6814ZM61.1445 60.5108H52.2285L56.6867 56.8585L61.1445 60.5108ZM59.6445 58.5556L60.5445 57.8181L61.6493 58.723V60.1981L59.6445 58.5556ZM61.6495 57.9959L60.7249 57.2376C60.6747 57.1965 60.6117 57.174 60.5468 57.174C60.4818 57.174 60.4189 57.1965 60.3687 57.2376L59.2028 58.1928L56.865 56.2776C56.8466 56.264 56.8266 56.2528 56.8054 56.2441H61.6508L61.6495 57.9959ZM56.5682 56.2439C56.547 56.2526 56.527 56.2638 56.5086 56.2775L51.7228 60.1981V56.2439H56.5682Z" fill="#3F3679"/>
<path d="M45.5238 36.7859H35.0332C34.9586 36.7859 34.8871 36.8155 34.8343 36.8683C34.7816 36.921 34.752 36.9925 34.752 37.0671V41.8966C34.752 41.9712 34.7816 42.0427 34.8343 42.0954C34.8871 42.1482 34.9586 42.1778 35.0332 42.1778H45.5238C45.5984 42.1778 45.67 42.1482 45.7227 42.0954C45.7755 42.0427 45.8051 41.9712 45.8051 41.8966V37.0671C45.8051 36.9925 45.7755 36.921 45.7227 36.8683C45.67 36.8155 45.5984 36.7859 45.5238 36.7859ZM45.2426 41.3028L40.4563 37.3816C40.4378 37.3679 40.4177 37.3565 40.3965 37.3478H45.242L45.2426 41.3028ZM44.7363 41.6153H35.8203L40.2785 37.9628L44.7363 41.6153ZM40.1602 37.3484C40.1389 37.3571 40.1188 37.3684 40.1004 37.3821L35.3145 41.3026V37.3484H40.1602Z" fill="#3F3679"/>
<path d="M44.8841 43.8193H35.673C35.4288 43.8196 35.1946 43.9167 35.022 44.0894C34.8493 44.262 34.7522 44.4961 34.752 44.7403V45.252C34.7522 45.4962 34.8493 45.7303 35.022 45.903C35.1946 46.0757 35.4288 46.1728 35.673 46.173H44.8841C45.1283 46.1728 45.3624 46.0757 45.5351 45.903C45.7077 45.7303 45.8048 45.4962 45.8051 45.252V44.7401C45.8048 44.496 45.7077 44.2619 45.535 44.0893C45.3623 43.9167 45.1282 43.8196 44.8841 43.8193ZM45.2426 45.252C45.2425 45.3471 45.2047 45.4382 45.1375 45.5054C45.0703 45.5726 44.9791 45.6104 44.8841 45.6105H35.673C35.5779 45.6104 35.4868 45.5726 35.4196 45.5054C35.3524 45.4382 35.3146 45.3471 35.3145 45.252V44.7401C35.3146 44.6451 35.3524 44.554 35.4196 44.4868C35.4868 44.4195 35.5779 44.3817 35.673 44.3816H44.8841C44.9791 44.3817 45.0703 44.4195 45.1375 44.4868C45.2047 44.554 45.2425 44.6451 45.2426 44.7401V45.252Z" fill="#3F3679"/>
<path d="M44.8841 47.2883H35.673C35.4288 47.2886 35.1946 47.3857 35.022 47.5584C34.8493 47.731 34.7522 47.9651 34.752 48.2093V48.721C34.7522 48.9652 34.8493 49.1993 35.022 49.372C35.1946 49.5447 35.4288 49.6418 35.673 49.642H44.8841C45.1283 49.6418 45.3624 49.5447 45.5351 49.372C45.7077 49.1993 45.8048 48.9652 45.8051 48.721V48.2093C45.8048 47.9651 45.7077 47.731 45.5351 47.5584C45.3624 47.3857 45.1283 47.2886 44.8841 47.2883ZM45.2426 48.721C45.2425 48.8161 45.2047 48.9072 45.1375 48.9744C45.0703 49.0416 44.9791 49.0794 44.8841 49.0795H35.673C35.5779 49.0794 35.4868 49.0416 35.4196 48.9744C35.3524 48.9072 35.3146 48.8161 35.3145 48.721V48.2093C35.3146 48.1143 35.3524 48.0232 35.4196 47.9559C35.4868 47.8887 35.5779 47.8509 35.673 47.8508H44.8841C44.9791 47.8509 45.0703 47.8887 45.1375 47.9559C45.2047 48.0232 45.2425 48.1143 45.2426 48.2093V48.721Z" fill="#3F3679"/>
<path d="M44.8841 50.7576H35.673C35.4288 50.7578 35.1946 50.8549 35.022 51.0276C34.8493 51.2003 34.7522 51.4344 34.752 51.6786V52.1903C34.7522 52.4344 34.8493 52.6686 35.022 52.8412C35.1946 53.0139 35.4288 53.111 35.673 53.1113H44.8841C45.1283 53.111 45.3624 53.0139 45.5351 52.8412C45.7077 52.6686 45.8048 52.4344 45.8051 52.1903V51.6786C45.8048 51.4344 45.7077 51.2003 45.5351 51.0276C45.3624 50.8549 45.1283 50.7578 44.8841 50.7576ZM45.2426 52.1903C45.2425 52.2853 45.2047 52.3764 45.1375 52.4436C45.0703 52.5109 44.9791 52.5487 44.8841 52.5488H35.673C35.5779 52.5487 35.4868 52.5109 35.4196 52.4436C35.3524 52.3764 35.3146 52.2853 35.3145 52.1903V51.6786C35.3146 51.5835 35.3524 51.4924 35.4196 51.4252C35.4868 51.358 35.5779 51.3202 35.673 51.3201H44.8841C44.9791 51.3202 45.0703 51.358 45.1375 51.4252C45.2047 51.4924 45.2425 51.5835 45.2426 51.6786V52.1903Z" fill="#3F3679"/>
</svg>
