<svg width="851" height="447" viewBox="0 0 851 447" fill="none" xmlns="http://www.w3.org/2000/svg">
<path d="M42.2533 219.103C42.7112 219.103 43.1765 219.01 43.6187 218.815L92.1175 197.41C93.742 196.693 94.4466 194.862 93.6911 193.32C92.9361 191.779 91.0064 191.11 89.3825 191.827L40.8842 213.232C39.2595 213.949 38.5549 215.78 39.3104 217.322C39.8598 218.443 41.0309 219.103 42.2535 219.103H42.2533ZM89.3828 204.912L40.8842 226.317C39.2595 227.033 38.5549 228.864 39.3104 230.406C39.8596 231.528 41.0304 232.188 42.2535 232.188C42.7114 232.188 43.1765 232.095 43.6189 231.9L92.1177 210.495C93.7422 209.778 94.4468 207.947 93.6913 206.405C92.9363 204.864 91.0066 204.195 89.3828 204.912V204.912ZM89.3828 218.107L40.8842 239.512C39.2595 240.228 38.5549 242.059 39.3104 243.601C39.8596 244.723 41.0304 245.383 42.2535 245.383C42.7114 245.383 43.1765 245.29 43.6189 245.095L92.1177 223.69C93.7422 222.973 94.4468 221.142 93.6913 219.6C92.9363 218.059 91.0066 217.39 89.3828 218.107V218.107ZM42.2533 206.055C42.7123 206.055 43.1786 205.962 43.6222 205.766L65.9795 195.87C67.6034 195.151 68.3053 193.319 67.5484 191.778C66.791 190.237 64.8613 189.571 63.2377 190.289L40.8803 200.185C39.2569 200.904 38.5545 202.735 39.3114 204.276C39.862 205.397 41.0319 206.055 42.2533 206.055ZM89.3703 231.197L72.2258 238.847C71.6686 239.096 71.1975 239.49 70.8675 239.983C70.5375 240.476 70.3622 241.049 70.3622 241.633V257.001H62.871V245.529C62.871 243.828 61.419 242.45 59.6276 242.45C57.836 242.45 56.384 243.828 56.384 245.529V257.001H51.7354C50.3551 257.001 49.311 258.186 49.5557 259.476L50.6498 265.24C50.7419 265.726 51.0106 266.165 51.409 266.481C51.8074 266.797 52.3103 266.97 52.8296 266.97H64.2098L52.1555 269.048C51.7324 269.12 51.357 269.35 51.1121 269.686C50.8672 270.021 50.7728 270.435 50.8496 270.837C50.9175 271.192 51.1141 271.512 51.4053 271.743C51.6965 271.974 52.0638 272.101 52.4434 272.102C52.5398 272.102 52.6373 272.094 52.7353 272.077L80.3826 267.312C80.7959 267.24 81.1636 267.019 81.4076 266.694C81.9803 266.386 82.4 265.844 82.5063 265.189L83.4443 259.424C83.6514 258.15 82.6131 257.001 81.2553 257.001H76.8492V243.588L92.1302 236.769C93.7513 236.046 94.4476 234.212 93.6853 232.673C92.9237 231.135 90.9922 230.473 89.3701 231.197H89.3703ZM79.8031 272.126L52.1558 276.891C51.7326 276.964 51.3572 277.194 51.1123 277.529C50.8673 277.865 50.7728 278.279 50.8496 278.68C50.9174 279.035 51.114 279.356 51.4052 279.587C51.6964 279.818 52.0638 279.945 52.4434 279.945C52.5394 279.945 52.6371 279.937 52.7348 279.92L80.3824 275.155C80.592 275.119 80.792 275.044 80.971 274.935C81.15 274.825 81.3046 274.684 81.4259 274.517C81.5472 274.351 81.6328 274.164 81.6778 273.967C81.7228 273.769 81.7264 273.565 81.6884 273.366C81.5283 272.53 80.6851 271.972 79.8031 272.126ZM79.8031 280.263L52.1558 285.028C51.9462 285.064 51.7462 285.139 51.5671 285.248C51.3881 285.357 51.2335 285.499 51.1122 285.666C50.9909 285.832 50.9053 286.019 50.8602 286.216C50.8152 286.414 50.8116 286.618 50.8496 286.817C50.9174 287.172 51.114 287.492 51.4052 287.723C51.6964 287.955 52.0638 288.081 52.4434 288.082C52.5394 288.082 52.6371 288.074 52.7348 288.057L80.3824 283.292C80.592 283.256 80.792 283.181 80.971 283.072C81.15 282.962 81.3046 282.82 81.4259 282.654C81.5472 282.488 81.6328 282.301 81.6778 282.103C81.7228 281.906 81.7264 281.702 81.6884 281.503C81.5283 280.666 80.6851 280.108 79.8031 280.263V280.263ZM76.4966 288.471L55.8769 291.843C55.4568 291.916 55.0841 292.143 54.8396 292.476C54.5952 292.808 54.4987 293.219 54.5712 293.618C54.6437 294.018 54.8793 294.374 55.2268 294.609C55.5743 294.845 56.0058 294.941 56.4274 294.877L77.0473 291.505C77.4712 291.435 77.8488 291.209 78.0969 290.875C78.3451 290.542 78.4434 290.128 78.3704 289.726C78.2183 288.889 77.3811 288.329 76.4966 288.471Z" fill="#838383"/>
<path d="M536.5 236.369C540.873 236.369 544.419 232.823 544.419 228.449C544.419 224.075 540.873 220.53 536.5 220.53C532.126 220.53 528.58 224.075 528.58 228.449C528.58 232.823 532.126 236.369 536.5 236.369Z" fill="#838383"/>
<path d="M536.5 257.573C542.716 263.619 548.847 267.195 553.787 267.195C555.404 267.195 556.937 266.855 558.215 266.088C562.643 263.534 564.261 257.147 562.728 248.035C562.472 246.417 562.132 244.799 561.706 243.096C563.409 242.585 564.942 242.074 566.475 241.563C575.076 238.242 579.844 233.644 579.844 228.62C579.844 223.51 575.076 218.912 566.475 215.676C564.942 215.08 563.409 214.569 561.706 214.143C562.132 212.44 562.472 210.822 562.728 209.204C564.176 199.922 562.558 193.45 558.129 190.895C556.852 190.129 555.319 189.788 553.701 189.788C548.847 189.788 542.631 193.365 536.415 199.411C530.283 193.365 524.152 189.788 519.213 189.788C517.595 189.788 516.062 190.129 514.785 190.895C510.357 193.45 508.739 199.837 510.272 208.948C510.527 210.566 510.868 212.184 511.294 213.888C509.59 214.398 508.058 214.909 506.525 215.42C497.924 218.741 493.155 223.34 493.155 228.364C493.155 233.473 497.924 238.072 506.525 241.308C508.058 241.904 509.59 242.415 511.294 242.841C510.868 244.544 510.527 246.162 510.272 247.78C508.824 256.891 510.442 263.363 514.785 265.833C516.062 266.599 517.595 266.94 519.213 266.94C524.152 267.11 530.283 263.534 536.5 257.573ZM531.731 246.077C533.264 246.162 534.882 246.162 536.5 246.162C538.118 246.162 539.736 246.162 541.269 246.077C539.736 248.12 538.118 249.994 536.5 251.782C534.882 249.994 533.264 248.12 531.731 246.077ZM521.172 237.306C522.023 238.753 522.79 240.116 523.726 241.478C521.087 241.138 518.617 240.712 516.233 240.201C516.999 237.902 517.851 235.517 518.872 233.133C519.554 234.495 520.32 235.943 521.172 237.306ZM516.233 216.783C518.617 216.272 521.087 215.846 523.726 215.506C522.875 216.868 522.023 218.231 521.172 219.678C520.32 221.126 519.554 222.488 518.872 223.936C517.765 221.466 516.914 219.082 516.233 216.783ZM520.916 228.449C522.023 226.15 523.215 223.851 524.578 221.552C525.855 219.338 527.303 217.123 528.751 214.909C531.305 214.739 533.86 214.654 536.5 214.654C539.225 214.654 541.779 214.739 544.249 214.909C545.782 217.123 547.144 219.338 548.422 221.552C549.784 223.851 550.976 226.15 552.083 228.449C550.976 230.748 549.784 233.048 548.422 235.347C547.144 237.561 545.697 239.775 544.249 241.989C541.694 242.159 539.14 242.245 536.5 242.245C533.775 242.245 531.22 242.159 528.751 241.989C527.218 239.775 525.855 237.561 524.578 235.347C523.215 233.048 522.023 230.748 520.916 228.449ZM554.212 223.851L551.913 219.593C551.062 218.145 550.295 216.783 549.358 215.42C551.998 215.761 554.468 216.187 556.852 216.698C556.086 219.082 555.234 221.466 554.212 223.851ZM554.212 233.048C555.234 235.432 556.086 237.816 556.852 240.116C554.468 240.627 551.998 241.052 549.358 241.393C550.21 240.031 551.062 238.668 551.913 237.22C552.679 235.943 553.446 234.495 554.212 233.048ZM556.171 262.597C555.49 263.023 554.638 263.193 553.701 263.193C549.529 263.193 544.334 259.787 539.225 254.677C541.694 252.038 544.079 249.057 546.463 245.736C550.465 245.395 554.297 244.799 557.874 243.948C558.3 245.481 558.555 247.013 558.811 248.546C560.003 255.784 559.066 260.979 556.171 262.597ZM560.599 217.72C570.137 220.445 575.842 224.617 575.842 228.449C575.842 231.77 571.925 235.091 565.027 237.731C563.665 238.242 562.132 238.753 560.599 239.179C559.492 235.688 558.129 232.111 556.426 228.449C558.129 224.788 559.577 221.211 560.599 217.72ZM553.787 193.706C554.723 193.706 555.49 193.876 556.256 194.302C559.066 195.92 560.088 201.029 558.896 208.352C558.64 209.8 558.3 211.333 557.959 212.951C554.383 212.184 550.551 211.588 546.548 211.163C544.249 207.841 541.779 204.861 539.31 202.221C544.419 197.197 549.614 193.706 553.787 193.706ZM541.269 210.822C539.736 210.737 538.118 210.737 536.5 210.737C534.882 210.737 533.264 210.737 531.731 210.822C533.264 208.778 534.882 206.905 536.5 205.116C538.118 206.905 539.736 208.863 541.269 210.822ZM516.829 194.302C517.51 193.876 518.362 193.706 519.298 193.706C523.471 193.706 528.665 197.112 533.775 202.221C531.305 204.861 528.921 207.841 526.537 211.163C522.534 211.503 518.702 212.099 515.126 212.951C514.7 211.418 514.444 209.885 514.189 208.352C512.997 201.114 513.933 196.005 516.829 194.302ZM512.401 239.179C502.863 236.454 497.158 232.281 497.158 228.449C497.158 225.128 501.075 221.807 507.972 219.167C509.335 218.656 510.868 218.145 512.401 217.72C513.508 221.211 514.87 224.788 516.573 228.449C514.87 232.111 513.422 235.773 512.401 239.179ZM514.189 248.546C514.444 247.098 514.785 245.566 515.126 243.948C518.702 244.714 522.534 245.31 526.537 245.736C528.836 249.057 531.305 252.038 533.775 254.677C528.665 259.702 523.471 263.193 519.298 263.193C518.362 263.193 517.595 263.023 516.829 262.597C513.933 260.979 512.997 255.784 514.189 248.546ZM510.612 283.631C512.486 281.331 512.571 278.777 511.549 276.222C510.527 273.667 508.398 272.475 505.758 272.39C502.608 272.305 499.372 272.39 496.221 272.39H495.625V294.445H498.179V286.1H502.182C502.693 286.1 503.119 286.27 503.374 286.696L508.483 294.616C508.569 294.786 508.824 295.041 508.994 295.041H512.315C510.272 291.891 508.313 288.91 506.269 285.845C508.058 285.589 509.59 284.993 510.612 283.631ZM498.179 283.46V275.03H499.116C501.075 275.03 503.119 274.945 505.077 275.115C507.376 275.2 508.994 276.988 508.994 279.288C508.994 281.587 507.121 283.375 504.822 283.46C502.778 283.545 500.734 283.46 498.179 283.46ZM531.135 284.567C529.772 278.606 524.322 277.073 520.15 278.947C516.914 280.395 515.466 283.205 515.381 286.696C515.296 289.336 516.062 291.72 518.106 293.509C520.405 295.552 523.215 295.808 526.111 295.297C527.729 294.956 529.176 294.19 530.283 292.998C529.858 292.402 529.432 291.806 529.006 291.295C526.622 293.338 523.982 294.02 521.087 292.657C519.213 291.72 518.276 289.421 518.106 287.718H531.305V286.611C531.39 285.845 531.305 285.163 531.135 284.567ZM518.276 285.93C518.021 283.375 520.576 280.65 523.386 280.65C526.622 280.565 528.665 282.523 528.751 285.93H518.276ZM544.419 278.521C543.142 278.266 541.779 278.181 540.502 278.266C538.458 278.436 536.67 279.373 535.222 280.906C535.648 281.502 535.989 282.098 536.5 282.779C536.67 282.609 536.84 282.438 537.011 282.353C538.373 281.076 539.991 280.395 541.95 280.565C543.483 280.65 544.93 281.161 545.356 282.694C545.697 283.886 545.612 285.163 545.697 286.441C545.441 286.441 545.356 286.356 545.271 286.27C543.227 284.567 540.928 284.227 538.458 284.823C536.159 285.419 534.712 287.207 534.541 289.506C534.371 292.146 535.563 294.105 537.862 295.041C539.31 295.638 540.928 295.638 542.461 295.297C543.653 295.041 544.164 294.36 545.867 293.424V294.531H548.251C548.251 291.124 548.337 286.952 548.251 283.034C548.251 280.565 546.804 279.032 544.419 278.521ZM545.612 289.251C545.526 289.506 545.612 289.762 545.612 290.017C545.612 291.806 545.186 292.402 543.483 293.083C542.29 293.509 541.013 293.679 539.736 293.253C538.288 292.827 537.266 291.55 537.266 290.102C537.181 288.655 538.118 287.207 539.565 286.781C541.524 286.1 543.312 286.526 544.93 287.718C545.441 288.144 545.782 288.57 545.612 289.251ZM558.896 280.82C561.11 280.139 563.154 280.565 564.687 282.438L564.942 282.609C565.538 282.098 566.049 281.587 566.73 280.991C566.475 280.735 566.39 280.565 566.219 280.309C563.75 277.67 558.896 277.329 555.915 279.458C551.743 282.523 551.828 288.484 553.872 291.635C555.83 294.616 558.64 295.638 561.962 295.212C563.92 294.956 565.538 294.02 566.815 292.402C566.219 291.891 565.623 291.38 565.027 290.784C564.857 290.954 564.772 291.039 564.687 291.209C562.387 293.764 558.555 293.509 556.512 290.784C555.319 289.166 555.064 287.292 555.404 285.419C555.575 283.29 556.682 281.587 558.896 280.82ZM576.608 292.402C576.438 292.487 576.353 292.572 576.353 292.572C575.672 293.083 574.99 293.168 574.224 292.913C573.458 292.572 573.372 291.891 573.287 291.209V281.502C573.287 281.331 573.287 281.672 573.372 280.82H576.608V278.266H573.202V274.008H570.647V278.606H568.433C568.263 278.606 568.008 278.777 568.008 278.947C567.922 279.543 568.008 279.969 568.008 280.82H570.733V291.72C570.733 293.083 571.073 294.275 572.265 294.956C573.543 295.723 576.012 295.552 577.119 294.616C577.29 294.531 577.375 294.19 577.375 294.105C577.119 293.594 576.864 292.998 576.608 292.402Z" fill="#838383"/>
<g clip-path="url(#clip0)">
<path d="M728.556 289.222C726.746 289.222 726.22 288.175 726.22 286.607C726.22 286.085 726.287 285.495 726.368 284.874C726.764 282.163 727.732 280.612 730.067 280.612C731.646 280.612 732.416 281.313 732.416 282.588V283.209H733.983C734.001 283.209 734.001 282.637 734.001 282.507C734.001 280.645 732.866 278.879 730.069 278.879C726.27 278.879 724.707 280.929 724.132 284.949C724.049 285.488 724 285.992 724 286.529C724 288.898 724.938 291.053 728.293 291.053C730.842 291.053 732.356 289.818 733.244 288.299L731.747 287.297C730.777 288.817 729.723 289.222 728.556 289.222ZM738.836 281.739C735.793 281.739 734.478 283.29 734.034 286.377C733.982 286.735 733.954 287.095 733.95 287.456C733.95 289.449 734.888 291.035 737.486 291.035C740.529 291.035 741.862 289.417 742.306 286.377C742.355 285.986 742.388 285.626 742.388 285.267C742.389 283.241 741.419 281.739 738.836 281.739ZM740.102 286.378C739.773 288.617 739.067 289.303 737.733 289.303C736.665 289.303 736.139 288.862 736.139 287.539C736.139 287.212 736.172 286.82 736.238 286.378C736.567 284.157 737.225 283.47 738.573 283.47C739.659 283.47 740.201 283.911 740.201 285.251C740.201 285.578 740.168 285.954 740.102 286.378ZM750.038 279.041L749.529 282.04C749.496 282.301 749.513 282.214 749.613 282.46C749.136 282.1 748.28 281.863 747.704 281.863C744.973 281.863 743.444 283.091 742.951 286.522C742.894 286.884 742.866 287.25 742.869 287.617C742.869 290.117 744.349 291.05 746.339 291.05C747.179 291.05 748 291.067 748.641 290.528L748.805 291.545H750.384L752.226 279.041H750.038ZM748.476 288.829C747.737 289.269 747.013 289.368 746.569 289.368C745.369 289.368 745.04 288.747 745.04 287.751C745.04 287.375 745.089 286.935 745.156 286.46C745.533 283.862 746.372 283.404 747.458 283.404C748.165 283.404 748.707 283.519 749.218 283.798L748.476 288.829ZM757.029 281.739C754.019 281.739 752.606 283.159 752.128 286.377C752.078 286.77 752.045 287.146 752.045 287.505C752.045 289.711 753.18 291.035 755.679 291.035C757.62 291.035 759.069 290.233 759.841 288.763L758.18 288.093C757.704 288.811 757.062 289.302 755.927 289.302C754.71 289.302 754.217 288.976 754.217 287.898C754.217 287.685 754.233 287.376 754.266 287.376H760.203C760.286 286.542 760.384 285.953 760.384 285.465C760.384 283.832 759.759 281.738 757.029 281.738V281.739ZM758.164 285.71H754.545C754.908 284.876 755.515 283.586 756.766 283.586C757.736 283.586 758.214 284.149 758.214 285.113C758.213 285.276 758.198 285.71 758.164 285.71ZM766.713 281.542L766.91 279.875H762.271L762.075 281.542H763.292L761.977 289.877H760.758L760.562 291.545H765.2L765.398 289.877H764.18L765.496 281.542H766.713ZM776.138 284.042L776.731 282.375H775.135L773.985 282.611C773.343 282.204 772.471 281.898 771.65 281.898C769.297 281.898 767.291 283.026 767.291 285.592C767.291 286.312 767.554 286.893 767.866 287.285C767.374 287.546 766.946 287.983 766.946 288.572C766.946 288.833 767.044 289.1 767.242 289.345C766.254 289.934 765.647 290.91 765.647 292.053C765.647 294.26 767.966 294.731 769.742 294.731C771.979 294.731 774.644 294.223 774.644 291.396C774.644 290.433 774.035 289.68 772.276 289.353L769.101 288.764C768.74 288.698 768.657 288.584 768.657 288.42C768.657 288.175 768.807 288.045 769.052 288.045L769.267 288.078C769.694 288.176 770.188 288.225 770.697 288.225C772.984 288.225 775.023 287.244 775.023 284.696C775.023 284.336 774.958 284.092 774.793 283.7C775.072 283.831 775.435 284.043 775.582 284.043H776.138V284.042ZM771.616 290.805C772.24 290.92 772.454 291.149 772.454 291.557C772.454 292.881 771.023 293.044 769.987 293.044C768.408 293.044 767.817 292.669 767.817 291.835C767.817 291.099 768.03 290.757 768.524 290.233L771.616 290.805ZM770.941 286.526C769.987 286.526 769.46 286.183 769.46 285.365C769.46 284.157 770.168 283.454 771.401 283.454C772.388 283.454 772.866 283.862 772.866 284.662C772.866 285.871 772.174 286.526 770.941 286.526ZM781.981 281.739C781.06 281.739 780.238 282.187 779.218 282.987L779.07 282.375H777.26L775.994 291.544H778.182L779.136 284.591C779.778 284.199 780.566 283.63 781.241 283.63C782.063 283.63 782.36 284.024 782.36 284.775C782.36 284.955 782.342 285.488 782.309 285.684L781.504 291.544H783.692L784.497 285.636C784.53 285.36 784.563 284.904 784.563 284.644C784.564 283.09 783.823 281.739 781.981 281.739ZM788.719 289.247L788.735 289.023L789.689 282.375H786.054L785.824 284.042H787.419C787.287 284.042 787.205 284.188 787.189 284.32L786.531 288.747C786.498 288.961 786.482 289.404 786.482 289.582C786.482 290.726 787.107 291.545 788.389 291.545H789.507L789.754 289.877H789.048C788.8 289.877 788.719 289.443 788.719 289.247ZM790.133 279.041H787.994C787.863 279.041 787.863 278.56 787.847 278.723L787.55 281.072C787.533 281.22 787.533 281.542 787.665 281.542H789.804C789.935 281.542 789.935 280.971 789.951 280.822L790.248 279.009C790.265 278.846 790.265 279.041 790.133 279.041ZM794.593 289.303C794.051 289.303 793.788 289.074 793.788 288.585L793.805 288.551L794.495 284.042H796.995L797.751 282.375H794.725L795.234 278.707L792.933 279.438L792.521 282.375H791.189L790.959 284.042H792.505C792.357 284.876 792.209 284.335 792.193 284.499L791.6 288.453C791.568 288.633 791.568 288.764 791.568 288.926C791.568 290.479 792.719 291.06 794.102 291.06C795.384 291.06 796.42 290.688 797.227 290.017L796.206 288.77C795.695 289.08 795.351 289.303 794.593 289.303ZM802.62 281.739C799.61 281.739 798.196 283.159 797.718 286.377C797.669 286.77 797.636 287.146 797.636 287.505C797.636 289.711 798.771 291.035 801.27 291.035C803.211 291.035 804.66 290.233 805.432 288.763L803.771 288.093C803.295 288.811 802.653 289.302 801.517 289.302C800.301 289.302 799.807 288.976 799.807 287.898C799.807 287.685 799.825 287.376 799.858 287.376H805.794C805.877 286.542 805.975 285.953 805.975 285.465C805.975 283.832 805.351 281.738 802.62 281.738V281.739ZM803.755 285.71H800.137C800.498 284.876 801.106 283.586 802.357 283.586C803.327 283.586 803.805 284.149 803.805 285.113C803.804 285.276 803.788 285.71 803.755 285.71ZM812.028 281.738C811.239 281.738 810.499 282.188 809.758 282.889L809.627 282.375H807.818L806.551 291.544H808.755L809.725 284.444C810.301 284.102 810.959 283.809 811.584 283.809C811.98 283.809 812.357 283.747 812.719 283.795L813 281.901C812.669 281.836 812.34 281.739 812.028 281.739V281.738ZM756.172 272.473C751.194 270.336 746.535 264.903 746.524 259.343C746.51 253.283 750.377 248.137 755.186 244.755C754.608 246.925 754.293 248.91 755.725 250.851C757.057 252.655 759.389 253.532 761.591 253.056C766.736 251.937 766.972 246.318 763.922 243.045C760.906 239.803 757.988 236.141 759.136 231.44C759.711 229.083 761.168 226.876 763.013 225.298C761.595 229.001 765.625 232.652 768.281 234.471C772.888 237.627 777.942 240.012 782.178 243.711C786.634 247.599 789.924 252.856 789.26 258.954C788.54 265.562 783.253 270.159 777.324 272.479C789.854 269.732 802.801 260.071 803.066 246.267C803.286 234.91 795.443 226.17 785.728 221.166L785.22 220.891C785.487 221.533 785.574 222.08 785.564 222.569C785.651 222.209 785.71 221.838 785.727 221.455C785.724 221.91 785.665 222.362 785.549 222.802L785.564 222.569C785.42 223.172 785.177 223.748 784.845 224.272L784.987 224.12C783.049 227.314 777.802 228.007 775.21 224.7C771.043 219.381 775.297 213.646 775.892 208.014C776.637 200.954 772.181 194.101 766.655 190C769.698 194.891 765.689 201.361 762.481 204.978C759.371 208.484 755.588 211.412 752.154 214.598C748.465 218.019 744.919 221.624 741.887 225.64C735.823 233.678 732.111 243.788 734.839 253.816C737.566 263.838 746.304 270.217 756.172 272.473L756.172 272.473Z" fill="#838383"/>
</g>
<path d="M310.393 5H329.991L280.995 96.9167L232 5H269.481L280.995 26.314L292.264 5H310.393Z" fill="#828282"/>
<path d="M232 5L280.995 96.9167L329.991 5H310.393L280.995 60.15L251.353 5H232Z" fill="#828282"/>
<path d="M251.354 5L280.996 60.4165L310.393 5H292.265L280.996 26.314L269.482 5H251.354Z" fill="#9B9B9B"/>
<path d="M545.466 5L498.912 51.5L513.25 65.8375L574.025 5.0465H545.517L545.466 5ZM545.521 47.904L520.445 72.9249L545.517 97.9961H574.087L549.055 72.9326L574.087 47.9001H545.524L545.521 47.904Z" fill="#838383"/>
<path d="M67 96C91.8528 96 112 75.8528 112 51C112 26.1472 91.8528 6 67 6C42.1472 6 22 26.1472 22 51C22 75.8528 42.1472 96 67 96Z" fill="#838383"/>
<path d="M72.9941 72.0235C72.4141 71.8301 72.0449 71.4082 71.7285 70.8985C71.2891 70.1602 70.8144 69.4395 70.3926 68.6836C68.793 65.8184 67.1934 62.9883 65.5937 60.1231C65.541 60.0527 65.5059 59.9824 65.4531 59.8945C65.1894 59.9649 64.9434 60.0352 64.6797 60.0879C61.1465 61.002 57.6484 61.916 54.1152 62.8125C53.6934 62.918 53.2891 63.041 52.8672 63.041C52.0234 63.041 51.373 62.6719 50.9336 61.9512C50.8281 61.7754 50.7402 61.5996 50.6699 61.3887C47.4355 54.3926 44.1836 47.3789 40.9668 40.4004C40.3867 39.1523 39.8066 37.8867 39.2617 36.6563C39.1211 36.3398 39.0332 36.0059 38.9102 35.6719C38.8926 35.6191 38.8574 35.584 38.8398 35.5313C38.8398 35.3906 38.8398 35.2676 38.8398 35.127C38.8574 35.0566 38.9102 35.0215 38.9277 34.9512C38.998 34.7578 39.1211 34.6172 39.332 34.5293C39.4902 34.459 39.6484 34.4238 39.8066 34.4238C40.6504 34.3359 41.4941 34.2656 42.3379 34.1953C43.498 34.1074 44.6758 34.0195 45.8184 33.9316C47.3125 33.8262 48.8066 33.6855 50.3008 33.5801C50.5469 33.5625 50.793 33.5273 51.0039 33.4922C51.25 33.4922 51.4961 33.4922 51.7598 33.4922C51.8125 33.5098 51.8477 33.5098 51.9004 33.5449C52.252 33.5977 52.5156 33.7734 52.7266 34.0723C52.9023 34.3359 53.0781 34.5996 53.2539 34.8633C57.6484 42.2285 62.0605 49.5762 66.4551 56.9414C66.5078 57.0117 66.543 57.0996 66.6133 57.1875C72.2734 55.834 77.9336 54.4805 83.6289 53.1094C83.5586 53.0215 83.541 52.9512 83.4883 52.916C81.6601 50.3496 79.8672 47.7832 78.0566 45.2168C77.9863 45.1289 77.916 45.0234 77.8809 44.9004C77.7402 44.6367 77.8105 44.4082 78.0742 44.2852C78.2676 44.1973 78.4785 44.1094 78.6894 44.0566C79.7266 43.8809 80.7812 43.7051 81.8008 43.5293C83.1719 43.3008 84.5605 43.0547 85.9141 42.8438C86.2656 42.7734 86.5996 42.7383 86.9512 42.6856C87.2676 42.6328 87.5488 42.7383 87.8125 42.9141C88.0762 43.1074 88.3047 43.3535 88.5156 43.5996C89.9219 45.3223 91.3105 47.0625 92.7168 48.7852C93.4551 49.6992 94.2109 50.6133 94.9316 51.5098C95.0019 51.5801 95.0371 51.668 95.0898 51.7383C95.0898 51.8438 95.0898 51.9844 95.0898 52.0899C94.9492 52.3184 94.7207 52.3711 94.4922 52.4414C92.0312 53.1094 89.5703 53.7422 87.1094 54.4102C87.0391 54.4277 86.9512 54.4629 86.8633 54.4805C86.9336 54.5684 86.9512 54.6211 87.0039 54.6738C88.1289 56.1856 89.2363 57.6621 90.3789 59.1738C91.5039 60.6856 92.6113 62.1973 93.7363 63.709C93.8242 63.8496 93.9121 63.9727 93.9824 64.1309C94.123 64.3945 94.0527 64.6231 93.8066 64.7813C93.6484 64.8867 93.4902 64.9746 93.3145 65.0274C92.752 65.2559 92.207 65.4492 91.6445 65.6426C87.0742 67.2774 82.5039 68.9297 77.9336 70.5645C76.8262 70.9688 75.7187 71.3379 74.5762 71.7246C74.2949 71.8125 73.9785 71.8828 73.6973 71.9707C73.4687 72.0235 73.2402 72.0235 72.9941 72.0235ZM50.793 35.127C50.0898 35.1973 49.3691 35.2676 48.6484 35.3027C47.8926 35.373 47.1543 35.4434 46.416 35.4961C45.4844 35.584 44.5352 35.6543 43.6035 35.7422C42.9883 35.7949 42.3555 35.8477 41.7402 35.9004C41.582 35.918 41.5469 35.9707 41.5645 36.1289C41.582 36.2168 41.6172 36.3047 41.6523 36.375C41.7227 36.5332 41.793 36.6563 41.8809 36.8145C44.7461 42.7031 47.6113 48.5918 50.4414 54.4805C51.373 56.3965 52.2871 58.2949 53.2012 60.2109C53.2539 60.3164 53.3066 60.3692 53.4297 60.3516C53.5879 60.334 53.7461 60.2988 53.8691 60.2637C56.9277 59.5254 59.9687 58.8047 63.0273 58.084C63.3437 58.0137 63.6777 57.9258 63.9766 57.8555C64.2051 57.7852 64.2578 57.6797 64.1699 57.4512C64.1172 57.3457 64.082 57.2578 64.0117 57.1699C59.8105 49.9277 55.6445 42.7207 51.4609 35.4961C51.2148 35.0918 51.2148 35.0918 50.793 35.127ZM67.8262 59.2793C67.8789 59.3672 67.8965 59.4199 67.9316 59.4551C69.1797 61.5996 70.4453 63.7793 71.7109 65.9414C72.2031 66.7852 72.7129 67.6289 73.2227 68.4727C73.3281 68.6485 73.4687 68.8242 73.5918 68.9824C73.75 69.1406 73.9434 69.1758 74.1543 69.0879C74.2422 69.0352 74.3301 69.0176 74.418 69C78.127 67.7344 81.8359 66.4688 85.5273 65.2207C87.2148 64.6406 88.9023 64.0957 90.5898 63.5156C90.6777 63.4981 90.7832 63.4453 90.8711 63.4102C91.0469 63.3223 91.0644 63.2344 90.959 63.0762C90.8887 62.9707 90.8008 62.8301 90.7305 62.7246C90.0625 61.793 89.3769 60.8789 88.709 59.9473C87.6016 58.4356 86.5117 56.9238 85.4043 55.4121C85.3164 55.2715 85.2285 55.1484 85.123 55.0078C85.0176 54.8672 84.877 54.8145 84.7012 54.8672C84.5605 54.9199 84.4551 54.9375 84.332 54.9727C82.5391 55.4473 80.7461 55.9043 78.9355 56.3789C75.3144 57.3106 71.6934 58.2598 68.0898 59.1914C68.002 59.209 67.9141 59.2442 67.8262 59.2793ZM85.4746 52.6875C85.5273 52.6875 85.5625 52.6699 85.6152 52.6699C87.7422 52.1426 89.9043 51.6328 92.0312 51.0879C92.1191 51.0703 92.207 51.0352 92.2949 51C92.4883 50.9121 92.541 50.8066 92.3828 50.6309C92.3652 50.6133 92.3301 50.5606 92.3125 50.543C90.7305 48.5391 89.1836 46.5527 87.6016 44.5664C87.584 44.5137 87.5312 44.4785 87.5137 44.4609C87.3555 44.2852 87.1797 44.2324 86.9336 44.2852C85.0176 44.6367 83.1191 44.9707 81.2031 45.3223C80.9746 45.375 80.7285 45.3926 80.5176 45.4629C80.3242 45.5156 80.2891 45.6035 80.3769 45.7441C80.4297 45.8145 80.4648 45.9023 80.5352 45.9727C82.1348 48.1523 83.7168 50.3496 85.2988 52.5117C85.3691 52.5645 85.4043 52.6348 85.4746 52.6875Z" fill="white"/>
<path d="M320.531 199.824H241.469V285.176H320.531V199.824Z" fill="#DFDFDF"/>
<path d="M284.494 266.391C284.494 274.697 279.976 278.488 273.394 278.488C267.447 278.488 264.005 275.174 262.24 271.154L268.293 267.21C269.458 269.439 270.517 271.325 273.076 271.325C275.511 271.325 277.065 270.296 277.065 266.277V239.014H284.494V266.391Z" fill="#838383"/>
<path d="M302.071 278.488C295.171 278.488 290.706 274.945 288.535 270.296L294.588 266.524C296.177 269.325 298.259 271.401 301.912 271.401C304.983 271.401 306.959 269.744 306.959 267.439C306.959 264.695 304.947 263.724 301.542 262.104L299.689 261.247C294.324 258.789 290.776 255.684 290.776 249.149C290.776 243.129 295.029 238.557 301.647 238.557C306.377 238.557 309.765 240.328 312.201 244.977L306.412 248.978C305.142 246.52 303.765 245.549 301.63 245.549C299.459 245.549 298.082 247.035 298.082 248.978C298.082 251.378 299.459 252.35 302.653 253.855L304.506 254.712C310.824 257.627 314.371 260.619 314.371 267.325C314.371 274.526 309.112 278.488 302.071 278.488Z" fill="#838383"/>
<path d="M66.5 446.592C103.227 446.592 133 431.013 133 411.796C133 392.579 103.227 377 66.5 377C29.7731 377 0 392.579 0 411.796C0 431.013 29.7731 446.592 66.5 446.592Z" fill="#DFDFDF"/>
<path fill-rule="evenodd" clip-rule="evenodd" d="M18.6748 432.399L25.9628 395.313H42.8148C50.1023 395.771 53.7463 399.434 53.7463 405.844C53.7463 416.832 45.0925 423.242 37.3488 422.784H29.1512L27.3292 432.399H18.6748ZM30.9726 415.917L33.2503 402.181H39.1714C42.3597 402.181 44.6368 403.555 44.6368 406.302C44.1817 414.085 40.5377 415.459 36.4386 415.917H30.9732H30.9726ZM52.0531 422.784L59.3406 385.699H67.9949L66.173 395.313H74.3712C81.6591 395.771 84.3919 399.434 83.4811 404.013L80.2928 422.784H71.1833L74.3717 405.844C74.8268 403.555 74.8268 402.181 71.6389 402.181H64.8066L60.7075 422.784H52.0531ZM79.7093 432.399L86.9968 395.313H103.849C111.137 395.771 114.781 399.434 114.781 405.844C114.781 416.832 106.127 423.242 98.3839 422.784H90.1852L88.3632 432.399H79.7093ZM92.0066 415.917L94.2843 402.181H100.206C103.394 402.181 105.671 403.555 105.671 406.302C105.216 414.085 101.572 415.459 97.4732 415.917H92.0072H92.0066Z" fill="#838383"/>
<path d="M359.041 403.865C358.587 403.865 358.145 403.959 357.754 404.18L345.377 411.333C344.576 411.795 344.089 412.667 344.089 413.595V427.876C344.089 428.803 344.576 429.674 345.377 430.137L348.609 432.005C350.179 432.779 350.758 432.767 351.473 432.767C353.798 432.767 355.126 431.355 355.126 428.901V414.805C355.126 414.606 354.953 414.463 354.758 414.463H353.208C353.009 414.463 352.84 414.606 352.84 414.805V428.901C352.84 429.989 351.708 431.083 349.87 430.164L346.507 428.191C346.388 428.127 346.296 428.012 346.296 427.876V413.595C346.296 413.46 346.387 413.322 346.507 413.253L358.857 406.127C358.913 406.094 358.977 406.077 359.041 406.077C359.106 406.077 359.169 406.094 359.225 406.127L371.576 413.254C371.694 413.325 371.786 413.456 371.786 413.596V427.876C371.786 428.013 371.718 428.152 371.602 428.218L359.225 435.345C359.119 435.408 358.973 435.408 358.857 435.345L355.678 433.451C355.629 433.425 355.575 433.411 355.52 433.411C355.465 433.411 355.411 433.425 355.362 433.451C354.485 433.949 354.32 434.007 353.496 434.293C353.294 434.364 352.986 434.474 353.602 434.819L357.754 437.264C358.145 437.491 358.589 437.609 359.041 437.607C359.493 437.609 359.938 437.491 360.329 437.265L372.706 430.138C373.507 429.672 373.994 428.803 373.994 427.876V413.595C373.994 412.668 373.507 411.797 372.706 411.334L360.329 404.181C359.941 403.959 359.496 403.865 359.041 403.865L359.041 403.865Z" fill="#838383"/>
<path d="M362.352 414.069C358.828 414.069 356.729 415.57 356.729 418.066C356.729 420.774 358.812 421.518 362.195 421.853C366.242 422.25 366.557 422.844 366.557 423.642C366.557 425.024 365.455 425.614 362.852 425.614C359.581 425.614 358.862 424.797 358.621 423.168C358.593 422.994 358.458 422.852 358.279 422.852H356.676C356.479 422.852 356.309 423.023 356.309 423.221C356.309 425.305 357.442 427.771 362.852 427.771C366.768 427.771 369.027 426.232 369.027 423.536C369.027 420.864 367.203 420.147 363.404 419.644C359.565 419.136 359.199 418.887 359.199 417.987C359.199 417.245 359.509 416.251 362.352 416.251C364.892 416.251 365.831 416.8 366.215 418.513C366.249 418.674 366.391 418.803 366.557 418.803H368.16C368.259 418.803 368.355 418.742 368.423 418.671C368.49 418.595 368.538 418.51 368.528 418.408C368.28 415.457 366.313 414.069 362.352 414.069Z" fill="#838383"/>
<path d="M286.277 385.14C286.138 385.14 286.002 385.176 285.882 385.245C285.763 385.315 285.664 385.415 285.595 385.535C285.526 385.654 285.489 385.79 285.488 385.929V406.048C285.488 406.245 285.397 406.422 285.226 406.521C285.142 406.57 285.047 406.595 284.95 406.595C284.853 406.595 284.758 406.57 284.674 406.521L281.389 404.627C281.149 404.489 280.877 404.416 280.601 404.416C280.324 404.416 280.052 404.489 279.812 404.627L266.699 412.201C266.209 412.485 265.911 413.029 265.911 413.595V428.744C265.911 429.309 266.21 429.828 266.699 430.111L279.812 437.685C280.052 437.824 280.324 437.898 280.601 437.898C280.877 437.898 281.149 437.824 281.389 437.685L294.502 430.111C294.742 429.973 294.941 429.773 295.08 429.533C295.218 429.293 295.291 429.021 295.29 428.744V390.978C295.29 390.695 295.214 390.416 295.071 390.171C294.928 389.926 294.723 389.724 294.476 389.584L286.671 385.219C286.548 385.15 286.413 385.138 286.277 385.14ZM201.923 404.049C201.673 404.059 201.438 404.103 201.214 404.233L188.101 411.807C187.86 411.945 187.661 412.144 187.523 412.384C187.384 412.625 187.312 412.897 187.313 413.174L187.339 433.504C187.339 433.787 187.485 434.049 187.733 434.188C187.852 434.259 187.988 434.297 188.127 434.297C188.266 434.297 188.402 434.259 188.521 434.188L196.3 429.717C196.792 429.424 197.114 428.914 197.114 428.349V418.855C197.114 418.289 197.412 417.769 197.903 417.487L201.214 415.568C201.453 415.428 201.725 415.356 202.002 415.357C202.272 415.357 202.55 415.425 202.79 415.568L206.101 417.487C206.342 417.625 206.541 417.825 206.68 418.065C206.818 418.305 206.891 418.578 206.89 418.855V428.349C206.89 428.914 207.215 429.427 207.704 429.717L215.483 434.188C215.602 434.259 215.738 434.297 215.877 434.297C216.016 434.297 216.152 434.259 216.271 434.188C216.391 434.118 216.491 434.018 216.56 433.898C216.629 433.778 216.666 433.642 216.666 433.504L216.691 413.174C216.693 412.897 216.621 412.624 216.482 412.384C216.344 412.144 216.144 411.945 215.903 411.807L202.79 404.233C202.569 404.103 202.333 404.059 202.081 404.049H201.923ZM319.755 404.233C319.481 404.233 319.213 404.302 318.967 404.443L305.854 412.018C305.614 412.156 305.415 412.355 305.276 412.595C305.138 412.835 305.065 413.108 305.066 413.385V428.533C305.066 429.103 305.386 429.619 305.88 429.901L318.888 437.317C319.368 437.591 319.955 437.612 320.439 437.343L328.322 432.951C328.572 432.812 328.741 432.553 328.742 432.268C328.744 432.129 328.708 431.992 328.639 431.872C328.569 431.752 328.469 431.652 328.348 431.584L315.157 424.009C314.91 423.868 314.736 423.583 314.736 423.299V418.566C314.736 418.282 314.912 418.023 315.157 417.882L319.256 415.515C319.376 415.445 319.512 415.409 319.65 415.409C319.789 415.409 319.925 415.445 320.044 415.515L324.143 417.882C324.264 417.951 324.363 418.051 324.433 418.171C324.502 418.291 324.538 418.427 324.538 418.565V422.3C324.538 422.438 324.574 422.575 324.643 422.695C324.712 422.815 324.812 422.914 324.932 422.983C325.178 423.126 325.475 423.126 325.72 422.983L333.578 418.408C333.817 418.269 334.016 418.07 334.155 417.83C334.293 417.59 334.366 417.318 334.366 417.04V413.385C334.366 412.821 334.067 412.301 333.578 412.018L320.544 404.443C320.304 404.305 320.032 404.232 319.755 404.233V404.233ZM280.548 415.541C280.616 415.541 280.697 415.558 280.758 415.594L285.252 418.197C285.374 418.268 285.462 418.398 285.462 418.539V423.746C285.462 423.888 285.375 424.018 285.252 424.088L280.758 426.692C280.698 426.726 280.63 426.744 280.561 426.744C280.492 426.744 280.424 426.726 280.364 426.692L275.871 424.088C275.748 424.017 275.66 423.888 275.66 423.746V418.539C275.66 418.398 275.749 418.269 275.871 418.197L280.364 415.594C280.419 415.56 280.483 415.542 280.548 415.542V415.541H280.548Z" fill="#838383"/>
<path d="M241.315 404.154C241.041 404.154 240.771 404.223 240.526 404.364L227.414 411.912C226.923 412.195 226.625 412.74 226.625 413.306V428.454C226.625 429.021 226.923 429.538 227.414 429.822L240.526 437.396C240.766 437.535 241.038 437.608 241.315 437.608C241.592 437.608 241.864 437.535 242.103 437.396L255.216 429.822C255.456 429.684 255.655 429.484 255.794 429.244C255.932 429.004 256.005 428.731 256.004 428.454V413.306C256.004 412.739 255.706 412.195 255.216 411.912L242.103 404.364C241.863 404.226 241.591 404.153 241.315 404.154ZM319.729 417.672C319.677 417.672 319.619 417.672 319.572 417.698L317.049 419.171C317.002 419.197 316.963 419.235 316.935 419.281C316.907 419.327 316.892 419.38 316.891 419.434V422.327C316.891 422.436 316.954 422.535 317.049 422.59L319.572 424.036C319.666 424.091 319.767 424.091 319.861 424.036L322.383 422.589C322.43 422.563 322.469 422.525 322.497 422.479C322.525 422.433 322.54 422.38 322.541 422.327V419.434C322.54 419.38 322.525 419.327 322.497 419.281C322.469 419.235 322.43 419.197 322.383 419.171L319.861 417.698C319.814 417.67 319.782 417.672 319.729 417.672V417.672Z" fill="#838383"/>
<path d="M498.125 397.449C498.122 396.815 498.113 396.182 498.097 395.549C498.06 394.169 497.98 392.776 497.738 391.412C497.507 390.043 497.076 388.717 496.459 387.477C495.209 384.986 493.213 382.962 490.757 381.693C489.535 381.068 488.228 380.631 486.878 380.397C485.53 380.151 484.157 380.07 482.796 380.033C482.17 380.015 481.546 380.008 480.921 380.004C480.179 380 479.437 380 478.694 380H455.435C454.692 380 453.951 380 453.209 380.004C452.584 380.009 451.959 380.017 451.334 380.033C450.994 380.042 450.652 380.055 450.311 380.071C449.288 380.121 448.262 380.213 447.251 380.397C446.244 380.575 445.258 380.863 444.312 381.255C442.725 381.921 441.284 382.897 440.07 384.127C439.101 385.108 438.291 386.239 437.67 387.476C437.037 388.736 436.636 390.024 436.392 391.41C436.149 392.776 436.069 394.169 436.033 395.547C436.015 396.184 436.008 396.816 436.004 397.449C436 398.203 436 398.955 436 399.707V423.291C436 424.045 436 424.797 436.004 425.55C436.009 426.184 436.016 426.817 436.033 427.45C436.07 428.831 436.149 430.224 436.392 431.587C436.622 432.957 437.053 434.283 437.67 435.524C438.92 438.015 440.917 440.04 443.374 441.308C444.615 441.948 445.886 442.354 447.253 442.604C448.598 442.85 449.973 442.931 451.334 442.968C451.959 442.985 452.584 442.992 453.209 442.996C453.95 443.001 454.692 443 455.435 443H478.694C479.434 443 480.177 443.001 480.919 442.996C481.544 442.992 482.168 442.985 482.794 442.968C484.156 442.93 485.53 442.85 486.876 442.604C488.225 442.37 489.533 441.933 490.755 441.308C493.211 440.04 495.208 438.015 496.458 435.524C497.09 434.264 497.491 432.974 497.737 431.59C497.979 430.225 498.06 428.832 498.096 427.451C498.112 426.819 498.12 426.185 498.124 425.551C498.129 424.799 498.127 424.046 498.127 423.293V399.707C498.127 398.955 498.127 398.203 498.124 397.449H498.125Z" fill="#838383"/>
<path d="M485.23 418.887L485.226 418.884C485.294 418.646 485.364 418.41 485.426 418.167C488.004 407.75 481.71 395.433 471.061 388.949C475.728 395.364 477.791 403.134 475.957 409.929C475.794 410.536 475.598 411.118 475.381 411.683C475.077 411.485 474.767 411.298 474.449 411.124C474.449 411.124 463.854 404.492 452.373 392.76C452.072 392.452 458.495 402.07 465.786 409.88C462.352 407.926 452.779 400.863 446.719 395.239C447.464 396.5 448.35 397.711 449.323 398.879C454.383 405.386 460.983 413.415 468.889 419.581C463.335 423.028 455.485 423.296 447.669 419.585C445.756 418.674 443.936 417.573 442.236 416.298C445.731 421.927 450.822 426.353 456.841 428.996C464.237 432.219 471.591 432 477.068 429.049L477.064 429.055C477.089 429.039 477.121 429.022 477.147 429.004C477.372 428.884 477.595 428.758 477.812 428.626C480.445 427.242 485.643 425.836 488.432 431.34C489.116 432.688 490.569 425.549 485.231 418.889L485.23 418.887Z" fill="white"/>
<path d="M521.708 420.884C522.194 425.254 526.305 428.12 532.014 428.12C537.438 428.12 541.35 425.255 541.35 421.289C541.35 417.874 538.98 415.789 533.527 414.4L528.246 413.038C520.652 411.129 517.226 407.654 517.226 401.923C517.226 394.86 523.307 389.968 531.958 389.968C540.349 389.968 546.316 394.889 546.517 401.982H540.949C540.521 397.639 537.038 394.976 531.814 394.976C526.646 394.976 523.05 397.668 523.05 401.604C523.05 404.671 525.277 406.497 530.757 407.915L535.155 409.073C543.662 411.186 547.145 414.544 547.145 420.594C547.145 428.295 541.12 433.128 531.528 433.128C522.622 433.128 516.541 428.323 516.084 420.883H521.708V420.884ZM582.506 432.433H576.911L570.373 409.334H570.26L563.75 432.433H558.156L549.877 402.183H555.3L561.067 426.47H561.182L567.69 402.183H572.944L579.509 426.47H579.624L585.391 402.183H590.757L582.506 432.433ZM594.369 394.049C594.369 392.226 595.855 390.75 597.653 390.75C599.48 390.75 600.964 392.226 600.964 394.049C600.964 395.873 599.48 397.378 597.653 397.378C596.783 397.373 595.951 397.02 595.337 396.397C594.722 395.774 594.375 394.93 594.37 394.049H594.369ZM594.941 402.183H600.393V432.433H594.941V402.183ZM636 406.642V402.183H630.235V394.946H624.809V402.183H614.387V399.52C614.415 396.828 615.442 395.699 617.898 395.699C618.697 395.699 619.497 395.786 620.153 395.902V391.558C619.2 391.407 618.236 391.329 617.271 391.326C611.446 391.326 608.991 393.788 608.991 399.432V402.182H604.823V406.641H608.991V432.432H614.415V406.642H624.81V424.501C624.81 430.348 627.007 432.605 632.718 432.605C633.945 432.605 635.344 432.519 635.973 432.375V427.859C635.29 427.944 634.604 427.993 633.916 428.004C631.376 428.004 630.235 426.788 630.235 424.067V406.642H636Z" fill="#838383"/>
<path d="M698.447 399.898C698.128 399.898 698.048 399.737 698.208 399.495L699.883 397.317C700.043 397.075 700.442 396.913 700.761 396.913H729.245C729.564 396.913 729.644 397.155 729.484 397.397L728.128 399.495C727.968 399.737 727.569 399.979 727.33 399.979L698.447 399.898ZM686.399 407.321C686.08 407.321 686 407.159 686.16 406.917L687.835 404.739C687.995 404.497 688.394 404.336 688.713 404.336H725.096C725.415 404.336 725.575 404.578 725.495 404.82L724.857 406.756C724.777 407.079 724.458 407.24 724.139 407.24L686.399 407.321ZM705.708 414.743C705.389 414.743 705.309 414.501 705.468 414.259L706.585 412.242C706.745 412 707.064 411.758 707.383 411.758H723.341C723.66 411.758 723.819 412 723.819 412.323L723.66 414.259C723.66 414.582 723.341 414.824 723.101 414.824L705.708 414.743ZM788.527 398.446C783.5 399.737 780.069 400.705 775.123 401.996C773.926 402.319 773.846 402.399 772.809 401.189C771.612 399.818 770.734 398.93 769.059 398.124C764.032 395.623 759.165 396.349 754.617 399.334C749.192 402.884 746.399 408.128 746.479 414.662C746.559 421.117 750.947 426.441 757.25 427.329C762.676 428.055 767.224 426.119 770.814 422.004C771.532 421.117 772.171 420.148 772.968 419.019H757.569C755.894 419.019 755.495 417.97 756.053 416.599C757.091 414.098 759.006 409.902 760.123 407.805C760.362 407.321 760.921 406.514 762.117 406.514H791.16C791 408.692 791 410.871 790.681 413.049C789.803 418.858 787.649 424.182 784.139 428.862C778.394 436.526 770.894 441.286 761.399 442.577C753.58 443.626 746.319 442.093 739.936 437.252C734.032 432.734 730.681 426.764 729.803 419.342C728.766 410.548 731.319 402.642 736.585 395.703C742.25 388.2 749.75 383.44 758.926 381.746C766.426 380.375 773.607 381.262 780.069 385.699C784.298 388.523 787.33 392.396 789.325 397.075C789.803 397.801 789.484 398.204 788.527 398.446Z" fill="#838383"/>
<path d="M814.936 443.061C807.676 442.899 801.053 440.802 795.468 435.961C790.761 431.847 787.808 426.603 786.851 420.391C785.415 411.274 787.888 403.206 793.314 396.026C799.138 388.281 806.16 384.247 815.654 382.553C823.793 381.101 831.452 381.907 838.394 386.667C844.697 391.024 848.606 396.913 849.644 404.658C851 415.55 847.888 424.424 840.468 432.008C835.202 437.413 828.739 440.802 821.319 442.335C819.165 442.738 817.011 442.819 814.936 443.061ZM833.926 410.467C833.846 409.418 833.846 408.612 833.686 407.805C832.25 399.818 824.989 395.3 817.41 397.075C809.989 398.769 805.202 403.529 803.447 411.113C802.011 417.405 805.043 423.779 810.787 426.361C815.176 428.297 819.564 428.055 823.793 425.877C830.096 422.569 833.527 417.405 833.926 410.467Z" fill="#838383"/>
<g clip-path="url(#clip1)">
<path d="M737.628 64.9981C737.628 69.1265 734.751 72.5065 731.237 72.5065C727.723 72.5065 724.843 69.1299 724.843 64.9981V40.4254C724.843 36.2969 727.719 32.9169 731.237 32.9169C734.754 32.9169 737.628 36.2969 737.628 40.4254V64.9981ZM812.158 64.9981C812.158 69.1265 809.281 72.5065 805.764 72.5065C802.246 72.5065 799.37 69.1299 799.37 64.9981V40.4254C799.37 36.2969 802.246 32.9169 805.764 32.9169C809.281 32.9169 812.158 36.2969 812.158 40.4254V64.9981ZM782.477 9.16655L786.578 1.80581C786.914 1.205 786.813 0.503501 786.36 0.251766C785.907 3.02345e-05 785.256 0.281974 784.924 0.882782L780.728 8.4147C776.786 6.88181 772.592 6.10303 768.363 6.11888C763.899 6.11888 759.676 6.95799 755.91 8.45162L751.695 0.886139C751.359 0.28533 750.711 3.04133e-05 750.258 0.255122C749.805 0.510214 749.704 1.20836 750.04 1.80917L754.162 9.20683C745.586 13.2346 739.809 20.7967 739.809 29.4631C739.809 30.3425 739.873 31.2118 739.987 32.0677H796.742C796.859 31.2118 796.92 30.3459 796.92 29.4631C796.92 20.7699 791.106 13.1876 782.483 9.16991L782.477 9.16655ZM755.4 22.0151C755.072 22.0151 754.747 21.9505 754.444 21.825C754.141 21.6995 753.866 21.5156 753.634 21.2837C753.402 21.0518 753.218 20.7765 753.093 20.4735C752.967 20.1706 752.903 19.8458 752.903 19.5179C752.903 19.19 752.967 18.8652 753.093 18.5623C753.218 18.2593 753.402 17.984 753.634 17.7521C753.866 17.5202 754.141 17.3363 754.444 17.2108C754.747 17.0853 755.072 17.0207 755.4 17.0207C756.062 17.0207 756.698 17.2838 757.166 17.7521C757.634 18.2204 757.897 18.8556 757.897 19.5179C757.897 20.1802 757.634 20.8154 757.166 21.2837C756.698 21.752 756.062 22.0151 755.4 22.0151ZM781.46 22.0151C781.132 22.0151 780.807 21.9505 780.504 21.825C780.201 21.6995 779.926 21.5156 779.694 21.2837C779.462 21.0518 779.278 20.7765 779.153 20.4735C779.027 20.1706 778.962 19.8458 778.962 19.5179C778.962 19.19 779.027 18.8652 779.153 18.5623C779.278 18.2593 779.462 17.984 779.694 17.7521C779.926 17.5202 780.201 17.3363 780.504 17.2108C780.807 17.0853 781.132 17.0207 781.46 17.0207C782.122 17.0207 782.757 17.2838 783.226 17.7521C783.694 18.2204 783.957 18.8556 783.957 19.5179C783.957 20.1802 783.694 20.8154 783.226 21.2837C782.757 21.752 782.122 22.0151 781.46 22.0151ZM739.803 34.5482V76.4067H739.826C740.118 79.9411 743.37 82.7505 747.311 82.7505H789.404C793.342 82.7505 796.594 79.9411 796.889 76.4067H796.913V34.5482H739.806H739.803ZM764.271 82.5424V95.4916C764.271 99.6201 761.395 103 757.877 103C754.36 103 751.486 99.6201 751.486 95.4916V82.5524L764.271 82.5424ZM785.578 82.5356V95.4916C785.578 99.6201 782.702 103 779.184 103C775.666 103 772.79 99.6201 772.79 95.4916V82.5356H785.578Z" fill="#828282"/>
</g>
<defs>
<clipPath id="clip0">
<rect width="89" height="105" fill="white" transform="translate(724 190)"/>
</clipPath>
<clipPath id="clip1">
<rect width="103" height="103" fill="white" transform="translate(717)"/>
</clipPath>
</defs>
</svg>
