<svg width="108" height="108" viewBox="0 0 108 108" fill="none" xmlns="http://www.w3.org/2000/svg">
<g filter="url(#filter0_d)">
<circle cx="54" cy="50" r="50" fill="#FFB6E7"/>
<path d="M54 72.9688C66.6853 72.9688 76.9688 62.6853 76.9688 50C76.9688 37.3147 66.6853 27.0312 54 27.0312C41.3147 27.0312 31.0312 37.3147 31.0312 50C31.0312 62.6853 41.3147 72.9688 54 72.9688Z" fill="#F24976"/>
<path d="M58.1972 61.9746H49.8037V66.1399H58.1972V61.9746Z" fill="#445EA0"/>
<path d="M51.6639 61.9746H49.8037V66.1399H51.6639V61.9746Z" fill="#2E4C89"/>
<path d="M62.3525 68.5432C62.3525 68.7715 62.1656 68.9585 61.9372 68.9585H46.0618C45.8334 68.9585 45.6465 68.7715 45.6465 68.5432V66.4617C45.6465 66.2334 45.8334 66.0464 46.0618 66.0464H61.9371C62.1655 66.0464 62.3524 66.2334 62.3524 66.4617V68.5432H62.3525Z" fill="#293D7C"/>
<path d="M47.5076 68.5432V66.4617C47.5076 66.2334 47.6946 66.0464 47.923 66.0464H46.0628C45.8344 66.0464 45.6475 66.2334 45.6475 66.4617V68.5432C45.6475 68.7715 45.8344 68.9585 46.0628 68.9585H47.923C47.6945 68.9585 47.5076 68.7714 47.5076 68.5432Z" fill="#1A2B63"/>
<path d="M77.4561 30.0188H30.544C30.2448 30.0188 30 30.2637 30 30.563V61.5243C30 61.8235 30.2448 62.0684 30.544 62.0684H62.8376V60.4423C62.8376 60.2766 62.9722 60.142 63.1379 60.142H64.4022C64.6604 60.142 64.9291 59.9508 65.0139 59.7069L65.2527 59.1332C65.365 58.9066 65.3109 58.5821 65.1271 58.4L64.2348 57.5147C64.1783 57.4586 64.1472 57.3837 64.1472 57.3037C64.1472 57.2237 64.1783 57.1488 64.2349 57.0927L65.8531 55.4871C65.9098 55.4308 65.9857 55.3997 66.0667 55.3997C66.1477 55.3997 66.2237 55.4308 66.2804 55.4871L67.1726 56.3724C67.2869 56.4858 67.4634 56.5537 67.6447 56.5537C67.7422 56.5537 67.8352 56.5335 67.9136 56.4953L68.495 56.2571C68.7344 56.1754 68.926 55.9074 68.926 55.6489V54.4003C68.926 54.2346 69.0607 54.1 69.2262 54.1H71.5174C71.6829 54.1 71.8176 54.2347 71.8176 54.4003V55.6489C71.8176 55.9075 72.0092 56.1754 72.2538 56.2591L72.8357 56.4978C72.9085 56.5335 73.0016 56.5537 73.099 56.5537C73.2803 56.5537 73.4568 56.4859 73.5712 56.3725L74.4635 55.4872C74.5202 55.4309 74.596 55.3998 74.677 55.3998C74.758 55.3998 74.8339 55.4309 74.8906 55.4872L76.5085 57.0929C76.5651 57.149 76.5962 57.2239 76.5962 57.3039C76.5962 57.3838 76.565 57.4588 76.5085 57.5148L75.6165 58.4002C75.4327 58.5822 75.3786 58.9067 75.4933 59.139L75.7316 59.7121C75.8143 59.9509 76.0829 60.1421 76.3413 60.1421H77.6057C77.7713 60.1421 77.906 60.2767 77.906 60.4424V61.8287C77.9651 61.7417 77.9997 61.6369 77.9997 61.5244V30.563C78 30.2637 77.7552 30.0188 77.4561 30.0188Z" fill="#293D7C"/>
<path d="M32.3887 56.6283C32.3887 56.8079 32.5356 56.9548 32.7151 56.9548H64.3746L65.8538 55.4871C65.9105 55.4308 65.9863 55.3997 66.0674 55.3997C66.1484 55.3997 66.2244 55.4308 66.2811 55.4871L67.1733 56.3724C67.2876 56.4858 67.4641 56.5537 67.6453 56.5537C67.7428 56.5537 67.8358 56.5334 67.9143 56.4953L68.4956 56.2571C68.7351 56.1754 68.9267 55.9074 68.9267 55.6489V54.4003C68.9267 54.2346 69.0613 54.1 69.2269 54.1H71.518C71.6836 54.1 71.8182 54.2347 71.8182 54.4003V55.6489C71.8182 55.9075 72.0099 56.1754 72.2544 56.2591L72.8364 56.4978C72.9092 56.5335 73.0023 56.5537 73.0997 56.5537C73.281 56.5537 73.4574 56.4859 73.5718 56.3725L74.4641 55.4872C74.5209 55.4309 74.5967 55.3998 74.6777 55.3998C74.7587 55.3998 74.8345 55.4309 74.8913 55.4872L75.6124 56.2029V35.3669H32.3887V56.6283Z" fill="white"/>
<path d="M34.2489 56.6283V35.3669H32.3887V56.6283C32.3887 56.8079 32.5356 56.9548 32.7151 56.9548H34.5753C34.3958 56.9549 34.2489 56.8079 34.2489 56.6283Z" fill="#D9EAFC"/>
<path d="M53.4022 49.7686C52.5464 48.9128 51.2945 48.6899 50.2314 49.0983L46.6446 45.5115L45.9236 46.2325C45.9036 46.2525 45.8937 46.2804 45.8966 46.3085C45.9184 46.5199 45.8606 46.7285 45.7336 46.8959C45.71 46.927 45.7081 46.9695 45.7289 47.0026C45.9287 47.3198 45.9074 47.7057 45.6807 47.9526L48.5288 50.8008C48.1203 51.8638 48.3433 53.1159 49.1991 53.9718C49.9399 54.7126 50.9882 55.0066 52.0033 54.7582C52.0304 54.7516 52.0548 54.7375 52.0739 54.7184C52.0918 54.7005 52.1054 54.6779 52.1123 54.6526C52.127 54.6002 52.1123 54.544 52.0739 54.5057L50.2442 52.6759L52.1062 50.8138L53.9359 52.6437C53.9744 52.6819 54.0305 52.6968 54.0828 52.6821C54.1082 52.675 54.1308 52.6616 54.1487 52.6437C54.1679 52.6245 54.1818 52.6002 54.1885 52.5728C54.4371 51.5577 54.1431 50.5095 53.4022 49.7686Z" fill="#FF9518"/>
<path d="M43.9624 45.5616C44.123 45.5616 44.2825 45.6087 44.424 45.6977C44.4393 45.7074 44.4566 45.7121 44.474 45.7121C44.4939 45.7121 44.5139 45.7057 44.5307 45.6931C44.6749 45.5836 44.8479 45.5258 45.0311 45.5258C45.0601 45.5258 45.0892 45.5273 45.118 45.5303C45.1212 45.5306 45.1245 45.5308 45.1277 45.5308C45.1524 45.5308 45.1764 45.5209 45.194 45.5033L45.9151 44.7822L42.3283 41.1955C42.7367 40.1324 42.5138 38.8803 41.658 38.0247C40.9171 37.2838 39.8689 36.9897 38.8539 37.2381C38.8266 37.2449 38.8024 37.2588 38.7833 37.2779C38.7653 37.2958 38.7518 37.3184 38.7446 37.3439C38.73 37.3963 38.7447 37.4523 38.7833 37.4908L40.6129 39.3204L38.7508 41.1826L36.9211 39.3527C36.8828 39.3143 36.8265 39.2997 36.7742 39.3143C36.7489 39.3212 36.7263 39.3347 36.7084 39.3527C36.6892 39.3719 36.6752 39.3962 36.6685 39.4234C36.4201 40.4384 36.7142 41.4868 37.4549 42.2275C38.3108 43.0833 39.5627 43.3063 40.6259 42.8979L43.4741 45.7461C43.6035 45.6273 43.7754 45.5616 43.9624 45.5616Z" fill="#FF9518"/>
<path d="M54 60.9703C54.8112 60.9703 55.4688 60.3127 55.4688 59.5015C55.4688 58.6903 54.8112 58.0327 54 58.0327C53.1888 58.0327 52.5312 58.6903 52.5312 59.5015C52.5312 60.3127 53.1888 60.9703 54 60.9703Z" fill="#445EA0"/>
<path d="M75.2862 32.7932H32.7151C32.5356 32.7932 32.3887 32.94 32.3887 33.1197V35.4606H75.6125V33.1197C75.6125 32.94 75.4657 32.7932 75.2862 32.7932Z" fill="#5DC1D8"/>
<path d="M34.5753 32.7932H32.7151C32.5356 32.7932 32.3887 32.94 32.3887 33.1197V35.4606H34.2489V33.1197C34.2489 32.94 34.3958 32.7932 34.5753 32.7932Z" fill="#28A5A5"/>
<path d="M68.8327 68.752C68.8327 68.9686 69.01 69.1459 69.2267 69.1459H71.5178C71.7345 69.1459 71.9118 68.9685 71.9118 68.752V67.5034C71.9118 67.2868 72.0795 67.052 72.2846 66.9818L72.8719 66.7412C73.0668 66.6463 73.3519 66.6936 73.5057 66.8463L74.398 67.7318C74.5518 67.8842 74.8034 67.8842 74.9572 67.7318L76.5752 66.1259C76.7291 65.9732 76.7291 65.7235 76.5752 65.5709L75.6831 64.6855C75.5291 64.5329 75.4819 64.249 75.578 64.0546L75.8188 63.4758C75.8899 63.2712 76.1254 63.1036 76.3419 63.1036H77.6063C77.8232 63.1036 78.0004 62.9264 78.0004 62.7098V60.4421C78.0004 60.2254 77.8231 60.048 77.6063 60.048H76.3419C76.1253 60.048 75.8899 59.8806 75.8188 59.6759L75.578 59.097C75.482 58.9028 75.5291 58.6189 75.6831 58.4664L76.5752 57.581C76.7291 57.4284 76.7291 57.1786 76.5752 57.0259L74.9572 55.4203C74.8034 55.2675 74.5518 55.2675 74.398 55.4203L73.5057 56.3055C73.3519 56.4581 73.0666 56.5055 72.8718 56.4106L72.2846 56.1701C72.0795 56.1 71.9118 55.8652 71.9118 55.6485V54.3999C71.9118 54.1831 71.7344 54.0059 71.5178 54.0059H69.2267C69.0099 54.0059 68.8327 54.1832 68.8327 54.3999V55.6485C68.8327 55.8652 68.665 56.0999 68.4599 56.1701L67.8729 56.4106C67.6783 56.5055 67.3928 56.4583 67.239 56.3055L66.3468 55.4203C66.1928 55.2675 65.9412 55.2675 65.7874 55.4203L64.169 57.0259C64.0153 57.1786 64.0153 57.4282 64.169 57.581L65.0614 58.4664C65.2153 58.6189 65.2625 58.9027 65.1665 59.097L64.9257 59.6759C64.8545 59.8806 64.6191 60.048 64.4025 60.048H63.1382C62.9213 60.048 62.7441 60.2254 62.7441 60.4421V62.7098C62.7441 62.9265 62.9214 63.1036 63.1382 63.1036H64.4025C64.6192 63.1036 64.8545 63.2712 64.9257 63.4758L65.1665 64.0548C65.2625 64.2489 65.2155 64.5329 65.0616 64.6855L64.169 65.5709C64.0153 65.7235 64.0153 65.9732 64.169 66.1259L65.7874 67.7318C65.9412 67.8842 66.1928 67.8842 66.3468 67.7316L67.2388 66.8463C67.3926 66.6936 67.6779 66.6463 67.8727 66.7411L68.4599 66.9818C68.665 67.0519 68.8327 67.2867 68.8327 67.5034V68.752Z" fill="#FF9518"/>
<path d="M70.3724 65.2194C68.3448 65.2194 66.7012 63.5884 66.7012 61.5762C66.7013 59.5637 68.3448 57.9329 70.3724 57.9329C72.4 57.9329 74.0437 59.5638 74.0437 61.576C74.0437 63.5883 72.4 65.2194 70.3724 65.2194Z" fill="#FFAF10"/>
<path d="M67.8181 61.5762C67.8181 59.7522 69.1682 58.2416 70.9308 57.9746C70.7488 57.947 70.5623 57.9329 70.3724 57.9329C68.3448 57.9329 66.7013 59.5638 66.7012 61.5762C66.7012 63.5884 68.3448 65.2194 70.3724 65.2194C70.5623 65.2194 70.7488 65.2051 70.9308 65.1776C69.1682 64.9106 67.8181 63.4 67.8181 61.5762Z" fill="#FF9518"/>
<path d="M70.3716 65.8105C68.0214 65.8105 66.1094 63.9109 66.1094 61.5762C66.1095 59.2414 68.0216 57.3418 70.3716 57.3418C72.7218 57.3418 74.634 59.2414 74.634 61.576C74.634 63.9109 72.7218 65.8105 70.3716 65.8105ZM70.3716 58.5237C68.6733 58.5237 67.2916 59.8929 67.2915 61.5762C67.2915 63.2592 68.6732 64.6287 70.3716 64.6287C72.0701 64.6287 73.4518 63.2593 73.452 61.576C73.452 59.8929 72.0701 58.5237 70.3716 58.5237Z" fill="#DB722C"/>
<path d="M70.3723 63.1163C69.5151 63.1163 68.8203 62.4266 68.8203 61.5761C68.8203 60.7252 69.5151 60.0356 70.3723 60.0356C71.2297 60.0356 71.9242 60.7251 71.9242 61.5759C71.9242 62.4266 71.2296 63.1163 70.3723 63.1163Z" fill="#FFAF10"/>
<path d="M69.9371 61.5762C69.9371 60.9212 70.3497 60.3631 70.9306 60.1404C70.7572 60.074 70.5693 60.0359 70.3723 60.0359C69.5151 60.0359 68.8203 60.7253 68.8203 61.5763C68.8203 62.4267 69.5151 63.1165 70.3723 63.1165C70.5694 63.1165 70.7572 63.0785 70.9306 63.012C70.3498 62.7892 69.9371 62.2312 69.9371 61.5762Z" fill="#FF9518"/>
<path d="M70.3715 63.7072C69.1899 63.7072 68.2285 62.7513 68.2285 61.5762C68.2285 60.4009 69.1899 59.4451 70.3715 59.4451C71.5532 59.4451 72.5144 60.4009 72.5144 61.576C72.5141 62.7513 71.553 63.7072 70.3715 63.7072ZM70.3715 60.6268C69.8416 60.6268 69.4106 61.0527 69.4106 61.5761C69.4106 62.0992 69.8416 62.5252 70.3715 62.5252C70.9013 62.5252 71.3323 62.0992 71.3323 61.5759C71.3323 61.0528 70.9013 60.6268 70.3715 60.6268Z" fill="#DB722C"/>
<path d="M43.1661 47.2444L44.1813 48.2596C44.2656 48.3439 44.328 48.4419 44.3691 48.5465L44.8089 48.1066C44.7054 48.0616 44.6089 47.9967 44.5266 47.9143L43.5113 46.8992C43.4271 46.8148 43.3628 46.7186 43.3186 46.6172L42.8789 47.0569C42.9854 47.0986 43.0831 47.1615 43.1661 47.2444Z" fill="#445EA0"/>
<path d="M53.6934 38.2588L53.1668 37.7322C53.1082 37.6737 52.9995 37.6555 52.9252 37.6917L51.7518 38.2643C51.6773 38.3006 51.5868 38.3912 51.5506 38.4655L51.0289 39.5349L45.1267 45.4371C44.8665 45.4101 44.5986 45.4923 44.3975 45.6823C44.4649 45.7217 44.5283 45.7693 44.5847 45.8257L45.5999 46.8408C45.6573 46.8982 45.7049 46.9612 45.7438 47.0275C45.9336 46.8263 46.0156 46.5588 45.9887 46.2988L51.8905 40.397L52.9602 39.8752C53.0347 39.8389 53.1252 39.7483 53.1614 39.674L53.7339 38.5005C53.7702 38.4262 53.7518 38.3174 53.6934 38.2588Z" fill="#445EA0"/>
<path d="M45.7265 48.0408C45.3948 48.3725 44.8252 48.3455 44.4606 47.9809L43.4454 46.9657C43.0808 46.601 43.0538 46.0314 43.3855 45.6997C43.7172 45.368 44.2868 45.3949 44.6514 45.7596L45.6666 46.7748C46.0312 47.1394 46.0582 47.709 45.7265 48.0408Z" fill="#293D7C"/>
<path d="M70.3532 39.8733H57.9902C57.6019 39.8733 57.2871 39.5586 57.2871 39.1702C57.2871 38.7818 57.6019 38.467 57.9902 38.467H70.3531C70.7415 38.467 71.0563 38.7818 71.0563 39.1702C71.0564 39.5586 70.7415 39.8733 70.3532 39.8733Z" fill="#69CDFF"/>
<path d="M70.3532 42.1689H57.9902C57.6019 42.1689 57.2871 41.8542 57.2871 41.4658C57.2871 41.0774 57.6019 40.7627 57.9902 40.7627H70.3531C70.7415 40.7627 71.0563 41.0774 71.0563 41.4658C71.0564 41.8541 70.7415 42.1689 70.3532 42.1689Z" fill="#69CDFF"/>
<path d="M70.3532 44.4646H57.9902C57.6019 44.4646 57.2871 44.1499 57.2871 43.7615C57.2871 43.3731 57.6019 43.0583 57.9902 43.0583H70.3531C70.7415 43.0583 71.0563 43.3731 71.0563 43.7615C71.0564 44.1499 70.7415 44.4646 70.3532 44.4646Z" fill="#69CDFF"/>
<path d="M70.3532 48.3105H57.9902C57.6019 48.3105 57.2871 47.9958 57.2871 47.6074C57.2871 47.219 57.6019 46.9043 57.9902 46.9043H70.3531C70.7415 46.9043 71.0563 47.219 71.0563 47.6074C71.0563 47.9958 70.7415 48.3105 70.3532 48.3105Z" fill="#37C47A"/>
<path d="M70.3532 50.6062H57.9902C57.6019 50.6062 57.2871 50.2915 57.2871 49.9031C57.2871 49.5147 57.6019 49.2 57.9902 49.2H70.3531C70.7415 49.2 71.0563 49.5147 71.0563 49.9031C71.0564 50.2914 70.7415 50.6062 70.3532 50.6062Z" fill="#37C47A"/>
<path d="M64.1332 52.9019H57.9902C57.6019 52.9019 57.2871 52.5871 57.2871 52.1987C57.2871 51.8103 57.6019 51.4956 57.9902 51.4956H64.1332C64.5216 51.4956 64.8363 51.8103 64.8363 52.1987C64.8363 52.5871 64.5216 52.9019 64.1332 52.9019Z" fill="#37C47A"/>
<path d="M39.8988 53.8687C39.5342 54.2334 38.9375 54.2334 38.5728 53.8687L37.5576 52.8536C37.193 52.4889 37.193 51.8923 37.5576 51.5276L41.9071 47.1783C42.2717 46.8136 42.8683 46.8136 43.2329 47.1783L44.2481 48.1935C44.6127 48.5581 44.6127 49.1547 44.2481 49.5194L39.8988 53.8687Z" fill="#293D7C"/>
<path d="M39.1367 52.8536C38.7721 52.489 38.7721 51.8924 39.1367 51.5277L43.3594 47.305L43.2329 47.1783C42.8683 46.8136 42.2717 46.8136 41.9071 47.1783L37.5576 51.5276C37.193 51.8923 37.193 52.4889 37.5576 52.8536L38.5728 53.8687C38.9374 54.2334 39.5341 54.2334 39.8988 53.8687L40.0253 53.7421L39.1367 52.8536Z" fill="#1A2B63"/>
<path d="M43.9958 46.3091C44.3275 45.9774 44.8971 46.0043 45.2617 46.369L44.6523 45.7596C44.2877 45.3949 43.718 45.368 43.3864 45.6997C43.0548 46.0314 43.0817 46.601 43.4463 46.9657L44.0554 47.5747C43.6911 47.2101 43.6643 46.6407 43.9958 46.3091Z" fill="#1A2B63"/>
</g>
<defs>
<filter id="filter0_d" x="0" y="0" width="108" height="108" filterUnits="userSpaceOnUse" color-interpolation-filters="sRGB">
<feFlood flood-opacity="0" result="BackgroundImageFix"/>
<feColorMatrix in="SourceAlpha" type="matrix" values="0 0 0 0 0 0 0 0 0 0 0 0 0 0 0 0 0 0 127 0"/>
<feOffset dy="4"/>
<feGaussianBlur stdDeviation="2"/>
<feColorMatrix type="matrix" values="0 0 0 0 0 0 0 0 0 0 0 0 0 0 0 0 0 0 0.25 0"/>
<feBlend mode="normal" in2="BackgroundImageFix" result="effect1_dropShadow"/>
<feBlend mode="normal" in="SourceGraphic" in2="effect1_dropShadow" result="shape"/>
</filter>
</defs>
</svg>
