<svg width="100" height="100" viewBox="0 0 100 100" fill="none" xmlns="http://www.w3.org/2000/svg">
<circle cx="50" cy="50" r="50" fill="#A49CF4"/>
<g clip-path="url(#clip0)">
<path d="M28.4502 25.8167H54.5836V29.0834H51.3168V32.35H28.4502V25.8167Z" fill="#269BD8"/>
<path d="M51.3168 66.6501H28.4502V32.3501H51.3168V45.4167H54.5836V53.5835H51.3168V66.6501Z" fill="#90D1F3"/>
<path d="M28.4502 73.1833H54.5836V69.9165H51.3168V66.6499H28.4502V73.1833Z" fill="#269BD8"/>
<path d="M72.5498 53.5835H51.3164V69.9169H72.5498V53.5835Z" fill="#FCBF29"/>
<path d="M72.5498 29.0835H51.3164V45.4169H72.5498V29.0835Z" fill="#FCBF29"/>
<g opacity="0.5">
<path opacity="0.5" d="M51.3164 69.9168V53.5835H52.9498C52.9498 62.6044 60.2623 69.9169 69.2831 69.9169H51.3164V69.9168Z" fill="#F28D01"/>
</g>
<g opacity="0.5">
<path opacity="0.5" d="M51.3164 45.4168V29.0835H52.9498C52.9498 38.1044 60.2623 45.4169 69.2831 45.4169H51.3164V45.4168Z" fill="#F28D01"/>
</g>
<path d="M44.7833 50.3165V47.802C47.908 45.998 48.9786 42.002 47.1746 38.8775C45.3706 35.753 41.3746 34.6815 38.25 36.4863C35.1254 38.291 34.0547 42.2862 35.8587 45.4108C36.432 46.4039 37.2569 47.2286 38.25 47.802V50.3165H44.7833Z" fill="#FCBF29"/>
<path d="M44.7834 50.3167H38.25V53.5833H44.7834V50.3167Z" fill="white"/>
<path d="M41.5166 53.5835H38.25V59.3001H41.5166V53.5835Z" fill="#269BD8"/>
<g opacity="0.5">
<path opacity="0.5" d="M43.967 46.2334C40.3622 46.2366 37.4369 43.3163 37.4336 39.7115C37.4328 38.5764 37.7276 37.46 38.2903 36.4734C35.1559 38.2505 34.055 42.2318 35.8321 45.3669C36.4063 46.3804 37.2418 47.2208 38.2503 47.8021V50.3167H44.7836V47.8021C45.784 47.2207 46.6138 46.3853 47.1888 45.3799C46.2071 45.9394 45.0965 46.2341 43.967 46.2334Z" fill="#F28D01"/>
</g>
<path d="M44.7832 53.5835H41.5166V59.3001H44.7832V53.5835Z" fill="#90D1F3"/>
<path d="M38.25 59.3H44.7834L41.5166 63.3834L38.25 59.3Z" fill="white"/>
<path d="M28.4494 74.0001H54.5828C55.0336 74.0001 55.3994 73.6343 55.3994 73.1835V70.7335H72.5494C73.0002 70.7335 73.3661 70.3676 73.3661 69.9169V53.5835C73.3661 53.1328 73.0002 52.7669 72.5494 52.7669H55.3994V46.2335H72.5494C73.0002 46.2335 73.3661 45.8676 73.3661 45.4169V29.0835C73.3661 28.6328 73.0002 28.2669 72.5494 28.2669H55.3994V25.8169C55.3994 25.3661 55.0336 25.0002 54.5828 25.0002H28.4494C27.9987 25.0002 27.6328 25.3661 27.6328 25.8169V73.1835C27.6328 73.6343 27.9987 74.0001 28.4494 74.0001ZM53.7661 72.3668H29.2661V67.4668H50.4994V69.9168C50.4994 70.3675 50.8653 70.7334 51.3161 70.7334H53.7661V72.3668ZM71.7328 69.1001H52.1328V54.4001H71.7328V69.1001ZM53.7661 52.7668H51.3161C50.8653 52.7668 50.4994 53.1327 50.4994 53.5834V65.8334H29.2661V33.1668H50.4994V45.4168C50.4994 45.8675 50.8653 46.2334 51.3161 46.2334H53.7661V52.7668ZM71.7328 44.6001H52.1328V29.9001H71.7328V44.6001ZM53.7661 26.6335V28.2669H51.3161C50.8653 28.2669 50.4994 28.6328 50.4994 29.0835V31.5335H29.2661V26.6335H53.7661Z" fill="black"/>
<path d="M43.9664 28.2666H42.333V29.9H43.9664V28.2666Z" fill="black"/>
<path d="M40.6998 28.2666H39.0664V29.9H40.6998V28.2666Z" fill="black"/>
<path d="M41.5161 34.8C37.4589 34.7984 34.1686 38.0855 34.167 42.1427C34.1661 44.5976 35.3911 46.8908 37.4329 48.2546V59.3C37.4329 59.4854 37.4957 59.6659 37.6117 59.8104L40.8784 63.8938C41.1601 64.2458 41.6738 64.3029 42.0266 64.0212C42.074 63.9836 42.1165 63.9403 42.154 63.8938L45.4206 59.8104C45.5366 59.6659 45.5995 59.4854 45.5995 59.3V48.2547C48.9731 46.0015 49.8812 41.4395 47.6281 38.0659C46.2642 36.0242 43.9711 34.7992 41.5161 34.8ZM43.9661 51.1334V52.7668H39.0661V51.1334H43.9661ZM42.3329 58.4834V54.4H43.9662V58.4834H42.3329ZM39.0661 54.4H40.6995V58.4834H39.0661V54.4ZM41.5161 62.0767L39.9481 60.1167H43.0841L41.5161 62.0767ZM44.3745 47.0966C44.1221 47.2419 43.9661 47.5114 43.9661 47.8029V49.5H42.3328V44.9382L44.5435 42.7274L43.3888 41.5727L41.5161 43.4453L39.6435 41.5727L38.4888 42.7274L40.6995 44.9382V49.5H39.0661V47.8022C39.0661 47.5107 38.9101 47.2412 38.6578 47.0958C35.9235 45.5172 34.9869 42.021 36.5655 39.2868C38.1441 36.5526 41.6403 35.6159 44.3745 37.1945C47.1087 38.7732 48.0454 42.2693 46.4668 45.0035C45.9654 45.8724 45.2434 46.5944 44.3745 47.0958V47.0966Z" fill="black"/>
<path d="M58.1763 38.72L59.1563 37.4133L56.761 35.6167L59.1563 33.8201L58.1763 32.5134L54.9096 34.9634C54.5486 35.2338 54.476 35.7458 54.7463 36.1068C54.7928 36.1689 54.8475 36.2236 54.9096 36.2702L58.1763 38.72Z" fill="black"/>
<path d="M65.69 38.7199L68.9566 36.2699C69.3176 35.9996 69.3902 35.4875 69.12 35.1265C69.0735 35.0644 69.0187 35.0098 68.9566 34.9632L65.69 32.5132L64.71 33.8199L67.1052 35.6165L64.71 37.4132L65.69 38.7199Z" fill="black"/>
<path d="M61.0597 40.0012L64.3271 31.8357L62.8108 31.2289L59.5434 39.3944L61.0597 40.0012Z" fill="black"/>
<path d="M42.3336 69.1001H40.7002V70.7335H42.3336V69.1001Z" fill="black"/>
<path d="M56.2164 41.3335H54.583V42.9669H56.2164V41.3335Z" fill="black"/>
<path d="M59.483 41.3335H57.8496V42.9669H59.483V41.3335Z" fill="black"/>
<path d="M62.7506 41.3335H61.1172V42.9669H62.7506V41.3335Z" fill="black"/>
<path d="M66.0162 41.3335H64.3828V42.9669H66.0162V41.3335Z" fill="black"/>
<path d="M69.2838 41.3335H67.6504V42.9669H69.2838V41.3335Z" fill="black"/>
<path d="M61.9332 56.0334H60.2998V57.6668H61.9332V56.0334Z" fill="black"/>
<path d="M70.0998 56.0334H63.5664V57.6668H70.0998V56.0334Z" fill="black"/>
<path d="M70.0998 59.3H60.2998V60.9334H70.0998V59.3Z" fill="black"/>
<path d="M70.1 62.5667H53.7666V64.2H70.1V62.5667Z" fill="black"/>
<path d="M66.8332 65.8335H53.7666V67.4669H66.8332V65.8335Z" fill="black"/>
<path d="M54.5832 60.9334H57.8499C58.3006 60.9334 58.6665 60.5676 58.6665 60.1168V56.8501C58.6665 56.3993 58.3006 56.0334 57.8499 56.0334H54.5832C54.1325 56.0334 53.7666 56.3993 53.7666 56.8501V60.1167C53.7665 60.5676 54.1324 60.9334 54.5832 60.9334ZM55.3999 57.6667H57.0332V59.3001H55.3999V57.6667Z" fill="black"/>
</g>
<defs>
<clipPath id="clip0">
<rect width="49" height="49" fill="white" transform="translate(26 25)"/>
</clipPath>
</defs>
</svg>
