<svg width="100" height="100" viewBox="0 0 100 100" fill="none" xmlns="http://www.w3.org/2000/svg">
<circle cx="50" cy="50" r="50" fill="#FF9F99"/>
<g clip-path="url(#clip0)">
<path d="M71.6325 70.5527H28.3674C27.4483 70.5527 26.7031 69.8075 26.7031 68.8884V35.4746H73.2967V68.8884C73.2968 69.8075 72.5517 70.5527 71.6325 70.5527Z" fill="#F8F6F6"/>
<path d="M73.2975 35.4749V68.8884C73.2975 69.807 72.5522 70.5523 71.6326 70.5523H69.7578C70.6774 70.5523 71.4226 69.807 71.4226 68.8884V35.4749H73.2975Z" fill="#EBEBEB"/>
<path d="M73.2968 35.4748H26.7031V31.1115C26.7031 30.1924 27.4482 29.4473 28.3674 29.4473H71.6325C72.5517 29.4473 73.2968 30.1924 73.2968 31.1115V35.4748Z" fill="#B3DAFE"/>
<path d="M73.2975 31.1114V35.475H71.4226V31.1114C71.4226 30.1927 70.6774 29.4475 69.7578 29.4475H71.6326C72.5521 29.4475 73.2975 30.1927 73.2975 31.1114Z" fill="#8AC9FE"/>
<path d="M40.6779 35.4653V70.5437H28.3679C27.4483 70.5437 26.7031 69.7984 26.7031 68.8789V35.4653H40.6779Z" fill="#FD8087"/>
<path d="M38.8955 35.4656H40.6775V70.5439H38.8955V35.4656Z" fill="#FE646F"/>
<path d="M71.6327 28.7441H61.5769C61.1886 28.7441 60.8739 29.059 60.8739 29.4472C60.8739 29.8354 61.1887 30.1502 61.5769 30.1502H71.6327C72.1627 30.1502 72.5939 30.5814 72.5939 31.1113V34.7716L27.4064 34.7623V31.1114C27.4064 30.5815 27.8377 30.1503 28.3677 30.1503H58.2793C58.6676 30.1503 58.9823 29.8356 58.9823 29.4473C58.9823 29.059 58.6675 28.7442 58.2793 28.7442H28.3676C27.0623 28.7442 26.0003 29.8061 26.0003 31.1115L26 68.879C26 68.8802 26.0001 68.8814 26.0001 68.8826V68.8885C26.0001 70.1938 27.0621 71.2558 28.3674 71.2558H71.6325C72.9378 71.2558 73.9998 70.1939 73.9998 68.8885L74 31.1114C74 29.8061 72.938 28.7441 71.6327 28.7441ZM72.5938 68.8885C72.5938 69.4185 72.1625 69.8497 71.6325 69.8497H41.3808V49.0893C41.3808 48.701 41.066 48.3863 40.6778 48.3863C40.2895 48.3863 39.9747 48.701 39.9747 49.0893V69.8409H28.3679C27.8382 69.8409 27.4073 69.4104 27.4062 68.8809V36.1778H39.9748V45.8675C39.9748 46.2558 40.2897 46.5705 40.6779 46.5705C41.0662 46.5705 41.3809 46.2558 41.3809 45.8675V36.1778H72.5938V68.8885Z" fill="black"/>
<path d="M33.3934 38.209H31.0048C30.6165 38.209 30.3018 38.5237 30.3018 38.912C30.3018 39.3003 30.6166 39.615 31.0048 39.615H33.3934C33.7817 39.615 34.0964 39.3003 34.0964 38.912C34.0964 38.5238 33.7816 38.209 33.3934 38.209Z" fill="black"/>
<path d="M33.3934 41.7322H31.0048C30.6165 41.7322 30.3018 42.047 30.3018 42.4352C30.3018 42.8234 30.6166 43.1382 31.0048 43.1382H33.3934C33.7817 43.1382 34.0964 42.8235 34.0964 42.4352C34.0964 42.0469 33.7816 41.7322 33.3934 41.7322Z" fill="black"/>
<path d="M33.3934 45.2551H31.0048C30.6165 45.2551 30.3018 45.5699 30.3018 45.9582C30.3018 46.3464 30.6166 46.6612 31.0048 46.6612H33.3934C33.7817 46.6612 34.0964 46.3464 34.0964 45.9582C34.0964 45.5699 33.7816 45.2551 33.3934 45.2551Z" fill="black"/>
<path d="M33.3934 48.7783H31.0048C30.6165 48.7783 30.3018 49.093 30.3018 49.4813C30.3018 49.8697 30.6166 50.1844 31.0048 50.1844H33.3934C33.7817 50.1844 34.0964 49.8696 34.0964 49.4813C34.0964 49.0931 33.7816 48.7783 33.3934 48.7783Z" fill="black"/>
<path d="M33.3934 52.3018H31.0048C30.6165 52.3018 30.3018 52.6166 30.3018 53.0048C30.3018 53.393 30.6166 53.7078 31.0048 53.7078H33.3934C33.7817 53.7078 34.0964 53.3931 34.0964 53.0048C34.0964 52.6165 33.7816 52.3018 33.3934 52.3018Z" fill="black"/>
<path d="M33.3934 55.8247H31.0048C30.6165 55.8247 30.3018 56.1395 30.3018 56.5277C30.3018 56.916 30.6166 57.2308 31.0048 57.2308H33.3934C33.7817 57.2308 34.0964 56.916 34.0964 56.5277C34.0964 56.1395 33.7816 55.8247 33.3934 55.8247Z" fill="black"/>
<path d="M33.3934 59.3479H31.0048C30.6165 59.3479 30.3018 59.6626 30.3018 60.0509C30.3018 60.4392 30.6166 60.754 31.0048 60.754H33.3934C33.7817 60.754 34.0964 60.4392 34.0964 60.0509C34.0964 59.6627 33.7816 59.3479 33.3934 59.3479Z" fill="black"/>
<path d="M33.3934 62.8711H31.0048C30.6165 62.8711 30.3018 63.1858 30.3018 63.5741C30.3018 63.9624 30.6166 64.2771 31.0048 64.2771H33.3934C33.7817 64.2771 34.0964 63.9624 34.0964 63.5741C34.0964 63.1858 33.7816 62.8711 33.3934 62.8711Z" fill="black"/>
<path d="M33.3934 66.3943H31.0048C30.6165 66.3943 30.3018 66.7091 30.3018 67.0973C30.3018 67.4855 30.6166 67.8003 31.0048 67.8003H33.3934C33.7817 67.8003 34.0964 67.4855 34.0964 67.0973C34.0964 66.7091 33.7816 66.3943 33.3934 66.3943Z" fill="black"/>
<path d="M48.4434 46.6114C48.5287 46.6452 48.6166 46.6613 48.703 46.6613C48.9826 46.6613 49.2469 46.4935 49.3565 46.218L52.1591 39.1718C52.3026 38.8109 52.1264 38.4022 51.7656 38.2586C51.4048 38.1153 50.9959 38.2913 50.8525 38.6521L48.0499 45.6983C47.9065 46.0591 48.0826 46.4678 48.4434 46.6114Z" fill="black"/>
<path d="M53.8263 46.229C53.9373 46.2933 54.0585 46.3238 54.1781 46.3238C54.4207 46.3238 54.6567 46.1981 54.7871 45.973L56.6691 42.724C56.7976 42.5023 56.7952 42.2282 56.6628 42.0086L54.7808 38.887C54.5805 38.5545 54.1483 38.4474 53.8158 38.648C53.4832 38.8484 53.3763 39.2805 53.5767 39.613L55.2441 42.3788L53.5704 45.2682C53.3758 45.6043 53.4903 46.0343 53.8263 46.229Z" fill="black"/>
<path d="M45.4229 45.9728C45.5533 46.1979 45.7893 46.3236 46.0319 46.3236C46.1515 46.3236 46.2727 46.293 46.3836 46.2287C46.7196 46.0341 46.8342 45.604 46.6396 45.268L44.9659 42.3785L46.6333 39.6128C46.8337 39.2802 46.7268 38.8481 46.3942 38.6477C46.0615 38.4472 45.6296 38.5543 45.4292 38.8868L43.5472 42.0084C43.4149 42.2279 43.4125 42.5021 43.5409 42.7238L45.4229 45.9728Z" fill="black"/>
<path d="M44.1493 50.1846H60.1036C60.4919 50.1846 60.8066 49.8698 60.8066 49.4816C60.8066 49.0934 60.4918 48.7786 60.1036 48.7786H44.1493C43.761 48.7786 43.4463 49.0933 43.4463 49.4816C43.4463 49.8699 43.7611 50.1846 44.1493 50.1846Z" fill="black"/>
<path d="M44.1493 53.7078H47.2652C47.6535 53.7078 47.9682 53.3931 47.9682 53.0048C47.9682 52.6165 47.6534 52.3018 47.2652 52.3018H44.1493C43.761 52.3018 43.4463 52.6166 43.4463 53.0048C43.4463 53.393 43.7611 53.7078 44.1493 53.7078Z" fill="black"/>
<path d="M54.0552 52.3018H50.9394C50.551 52.3018 50.2363 52.6166 50.2363 53.0048C50.2363 53.393 50.5511 53.7078 50.9394 53.7078H54.0552C54.4435 53.7078 54.7583 53.3931 54.7583 53.0048C54.7583 52.6165 54.4435 52.3018 54.0552 52.3018Z" fill="black"/>
<path d="M55.4296 57.2308H58.5455C58.9338 57.2308 59.2485 56.916 59.2485 56.5277C59.2485 56.1395 58.9337 55.8247 58.5455 55.8247H55.4296C55.0413 55.8247 54.7266 56.1395 54.7266 56.5277C54.7266 56.916 55.0413 57.2308 55.4296 57.2308Z" fill="black"/>
<path d="M58.5455 62.8711H55.4296C55.0413 62.8711 54.7266 63.1858 54.7266 63.5741C54.7266 63.9624 55.0414 64.2771 55.4296 64.2771H58.5455C58.9338 64.2771 59.2485 63.9624 59.2485 63.5741C59.2485 63.1858 58.9338 62.8711 58.5455 62.8711Z" fill="black"/>
<path d="M44.1493 67.8004H52.4976C52.8859 67.8004 53.2006 67.4855 53.2006 67.0973C53.2006 66.7091 52.8858 66.3943 52.4976 66.3943H44.1493C43.761 66.3943 43.4463 66.7091 43.4463 67.0973C43.4463 67.4855 43.7611 67.8004 44.1493 67.8004Z" fill="black"/>
<path d="M44.1493 57.2308H52.4976C52.8859 57.2308 53.2006 56.916 53.2006 56.5277C53.2006 56.1395 52.8858 55.8247 52.4976 55.8247H44.1493C43.761 55.8247 43.4463 56.1395 43.4463 56.5277C43.4463 56.916 43.7611 57.2308 44.1493 57.2308Z" fill="black"/>
<path d="M61.4784 57.2308H69.8267C70.215 57.2308 70.5297 56.916 70.5297 56.5277C70.5297 56.1395 70.2149 55.8247 69.8267 55.8247H61.4784C61.0901 55.8247 60.7754 56.1395 60.7754 56.5277C60.7754 56.916 61.0901 57.2308 61.4784 57.2308Z" fill="black"/>
<path d="M44.1493 60.754H46.0314C46.4197 60.754 46.7344 60.4392 46.7344 60.0509C46.7344 59.6627 46.4196 59.3479 46.0314 59.3479H44.1493C43.761 59.3479 43.4463 59.6626 43.4463 60.0509C43.4463 60.4393 43.7611 60.754 44.1493 60.754Z" fill="black"/>
<path d="M64.0682 59.3479H48.8661C48.4778 59.3479 48.1631 59.6626 48.1631 60.0509C48.1631 60.4392 48.4779 60.754 48.8661 60.754H64.0682C64.4566 60.754 64.7713 60.4392 64.7713 60.0509C64.7713 59.6627 64.4566 59.3479 64.0682 59.3479Z" fill="black"/>
<path d="M44.1493 64.2771H52.4976C52.8859 64.2771 53.2006 63.9624 53.2006 63.5741C53.2006 63.1858 52.8858 62.8711 52.4976 62.8711H44.1493C43.761 62.8711 43.4463 63.1858 43.4463 63.5741C43.4463 63.9624 43.7611 64.2771 44.1493 64.2771Z" fill="black"/>
</g>
<defs>
<clipPath id="clip0">
<rect width="48" height="48" fill="white" transform="translate(26 26)"/>
</clipPath>
</defs>
</svg>
