<svg width="70" height="70" viewBox="0 0 70 70" fill="none" xmlns="http://www.w3.org/2000/svg">
<g clip-path="url(#clip0)">
<path d="M70 35C70 54.3302 54.3302 70 35 70C26.6286 70 18.9457 67.0616 12.9226 62.1584C11.1356 60.7058 9.49554 59.0801 8.02849 57.3055C3.01262 51.2498 0 43.4755 0 35C0 15.6698 15.6698 0 35 0C35.5341 0 36.067 0.0112152 36.5958 0.0373841C54.6555 0.845947 69.1541 15.3445 69.9626 33.4042C69.9888 33.933 70 34.4659 70 35Z" fill="#CBCBCB"/>
<path d="M38.1269 60.4815C32.8627 60.4815 27.716 59.0379 23.2422 56.3078L23.0398 56.1839L10.8532 59.3204L14.1739 47.521L14.0367 47.3068C11.0817 42.7054 9.51855 37.3675 9.51855 31.8731C9.51855 16.0981 22.3525 3.26416 38.1269 3.26416C53.9019 3.26416 66.7359 16.0981 66.7359 31.8731C66.7359 47.6476 53.9019 60.4815 38.1269 60.4815Z" fill="#4DC95C"/>
<path d="M38.1268 0C37.6141 0 37.103 0.0128174 36.5957 0.0373841C19.7301 0.83847 6.25586 14.8116 6.25586 31.8731C6.25586 37.58 7.76831 43.1358 10.6426 48.0198L8.0284 57.3055C9.49545 59.0801 11.1355 60.7058 12.9225 62.1584L22.5457 59.6815C27.2886 62.3427 32.6511 63.744 38.1268 63.744C55.1884 63.744 69.1614 50.2698 69.9625 33.4042C69.9871 32.8969 69.9999 32.3858 69.9999 31.8731C69.9999 14.2983 55.7016 0 38.1268 0V0ZM38.1268 58.3383C33.2557 58.3383 28.494 57.0026 24.3583 54.4787L23.3826 53.8827L13.9244 56.3169L16.4969 47.176L15.8411 46.1517C13.1073 41.8941 11.6616 36.9573 11.6616 31.8731C11.6616 17.2784 23.5342 5.40733 38.1268 5.40733C52.7199 5.40733 64.5926 17.2784 64.5926 31.8731C64.5926 46.4657 52.7199 58.3383 38.1268 58.3383Z" fill="white"/>
<path d="M29.1737 17.0381L27.1058 16.9254C26.4564 16.8897 25.8193 17.107 25.328 17.5332C24.3255 18.4042 22.7223 20.0871 22.2294 22.2804C21.4956 25.5515 22.6299 29.5564 25.5672 33.5613C28.504 37.5657 33.9776 43.9739 43.6558 46.7104C46.7746 47.5926 49.2281 46.9977 51.1208 45.787C52.6199 44.8283 53.6538 43.2892 54.0261 41.5487L54.3561 40.0063C54.4608 39.5166 54.2119 39.0189 53.7569 38.809L46.7672 35.5875C46.3138 35.3782 45.7754 35.5101 45.4705 35.9058L42.7265 39.4632C42.5193 39.7318 42.1641 39.8381 41.8437 39.7254C39.9649 39.0653 33.6705 36.4287 30.2167 29.7759C30.0667 29.4875 30.104 29.1372 30.3166 28.891L32.9388 25.8576C33.2069 25.5478 33.2742 25.112 33.1135 24.7355L30.1008 17.687C29.9406 17.3116 29.5812 17.0606 29.1737 17.0381Z" fill="white"/>
</g>
<defs>
<clipPath id="clip0">
<rect width="70" height="70" fill="white"/>
</clipPath>
</defs>
</svg>
